<?xml version="1.0" encoding="utf-8" standalone="no"?>
<!DOCTYPE svg PUBLIC "-//W3C//DTD SVG 1.1//EN"
  "http://www.w3.org/Graphics/SVG/1.1/DTD/svg11.dtd">
<svg xmlns:xlink="http://www.w3.org/1999/xlink" width="359.752192pt" height="381.35952pt" viewBox="0 0 359.752192 381.35952" xmlns="http://www.w3.org/2000/svg" version="1.1">
 <title>connection-Te</title>
 <metadata>
  <rdf:RDF xmlns:dc="http://purl.org/dc/elements/1.1/" xmlns:cc="http://creativecommons.org/ns#" xmlns:rdf="http://www.w3.org/1999/02/22-rdf-syntax-ns#">
   <cc:Work>
    <dc:type rdf:resource="http://purl.org/dc/dcmitype/StillImage"/>
    <dc:title>connection-Te</dc:title>
    <dc:date>2026-09-07T14:00:24.634674</dc:date>
    <dc:description>Full 85604, 1936 frames, n≠0 time-mean anomalies; mapped-copy error and connection, not learned prediction. Source: docs/native_review_2026-09-05/curves.json</dc:description>
    <dc:format>image/svg+xml</dc:format>
    <dc:creator>
     <cc:Agent>
      <dc:title>Matplotlib v3.10.1, https://matplotlib.org/</dc:title>
     </cc:Agent>
    </dc:creator>
   </cc:Work>
  </rdf:RDF>
 </metadata>
 <defs>
  <style type="text/css">*{stroke-linejoin: round; stroke-linecap: butt}</style>
 </defs>
 <g id="figure_1">
  <g id="patch_1">
   <path d="M -0 381.35952 
L 359.752192 381.35952 
L 359.752192 -0 
L -0 -0 
z
" style="fill: #ffffff"/>
  </g>
  <g id="axes_1">
   <g id="patch_2">
    <path d="M 61.887344 197.990439 
L 346.601229 197.990439 
L 346.601229 31.2 
L 61.887344 31.2 
z
" style="fill: #ffffff"/>
   </g>
   <g id="matplotlib.axis_1">
    <g id="xtick_1">
     <g id="line2d_1">
      <path d="M 67.882944 197.990439 
L 67.882944 31.2 
" clip-path="url(#pf545037205)" style="fill: none; stroke: #b0b0b0; stroke-opacity: 0.18; stroke-width: 0.8; stroke-linecap: square"/>
     </g>
     <g id="line2d_2">
      <defs>
       <path id="m85384e5755" d="M 0 0 
L 0 3.5 
" style="stroke: #43544d; stroke-width: 0.8"/>
      </defs>
      <g>
       <use xlink:href="#m85384e5755" x="67.882944" y="197.990439" style="fill: #43544d; stroke: #43544d; stroke-width: 0.8"/>
      </g>
     </g>
    </g>
    <g id="xtick_2">
     <g id="line2d_3">
      <path d="M 113.336725 197.990439 
L 113.336725 31.2 
" clip-path="url(#pf545037205)" style="fill: none; stroke: #b0b0b0; stroke-opacity: 0.18; stroke-width: 0.8; stroke-linecap: square"/>
     </g>
     <g id="line2d_4">
      <g>
       <use xlink:href="#m85384e5755" x="113.336725" y="197.990439" style="fill: #43544d; stroke: #43544d; stroke-width: 0.8"/>
      </g>
     </g>
    </g>
    <g id="xtick_3">
     <g id="line2d_5">
      <path d="M 158.790506 197.990439 
L 158.790506 31.2 
" clip-path="url(#pf545037205)" style="fill: none; stroke: #b0b0b0; stroke-opacity: 0.18; stroke-width: 0.8; stroke-linecap: square"/>
     </g>
     <g id="line2d_6">
      <g>
       <use xlink:href="#m85384e5755" x="158.790506" y="197.990439" style="fill: #43544d; stroke: #43544d; stroke-width: 0.8"/>
      </g>
     </g>
    </g>
    <g id="xtick_4">
     <g id="line2d_7">
      <path d="M 204.244287 197.990439 
L 204.244287 31.2 
" clip-path="url(#pf545037205)" style="fill: none; stroke: #b0b0b0; stroke-opacity: 0.18; stroke-width: 0.8; stroke-linecap: square"/>
     </g>
     <g id="line2d_8">
      <g>
       <use xlink:href="#m85384e5755" x="204.244287" y="197.990439" style="fill: #43544d; stroke: #43544d; stroke-width: 0.8"/>
      </g>
     </g>
    </g>
    <g id="xtick_5">
     <g id="line2d_9">
      <path d="M 249.698067 197.990439 
L 249.698067 31.2 
" clip-path="url(#pf545037205)" style="fill: none; stroke: #b0b0b0; stroke-opacity: 0.18; stroke-width: 0.8; stroke-linecap: square"/>
     </g>
     <g id="line2d_10">
      <g>
       <use xlink:href="#m85384e5755" x="249.698067" y="197.990439" style="fill: #43544d; stroke: #43544d; stroke-width: 0.8"/>
      </g>
     </g>
    </g>
    <g id="xtick_6">
     <g id="line2d_11">
      <path d="M 295.151848 197.990439 
L 295.151848 31.2 
" clip-path="url(#pf545037205)" style="fill: none; stroke: #b0b0b0; stroke-opacity: 0.18; stroke-width: 0.8; stroke-linecap: square"/>
     </g>
     <g id="line2d_12">
      <g>
       <use xlink:href="#m85384e5755" x="295.151848" y="197.990439" style="fill: #43544d; stroke: #43544d; stroke-width: 0.8"/>
      </g>
     </g>
    </g>
    <g id="xtick_7">
     <g id="line2d_13">
      <path d="M 340.605629 197.990439 
L 340.605629 31.2 
" clip-path="url(#pf545037205)" style="fill: none; stroke: #b0b0b0; stroke-opacity: 0.18; stroke-width: 0.8; stroke-linecap: square"/>
     </g>
     <g id="line2d_14">
      <g>
       <use xlink:href="#m85384e5755" x="340.605629" y="197.990439" style="fill: #43544d; stroke: #43544d; stroke-width: 0.8"/>
      </g>
     </g>
    </g>
   </g>
   <g id="matplotlib.axis_2">
    <g id="ytick_1">
     <g id="line2d_15">
      <path d="M 61.887344 189.414476 
L 346.601229 189.414476 
" clip-path="url(#pf545037205)" style="fill: none; stroke: #b0b0b0; stroke-opacity: 0.18; stroke-width: 0.8; stroke-linecap: square"/>
     </g>
     <g id="line2d_16">
      <defs>
       <path id="m367feffceb" d="M 0 0 
L -3.5 0 
" style="stroke: #43544d; stroke-width: 0.8"/>
      </defs>
      <g>
       <use xlink:href="#m367feffceb" x="61.887344" y="189.414476" style="fill: #43544d; stroke: #43544d; stroke-width: 0.8"/>
      </g>
     </g>
     <g id="text_1">
      <!-- −0.05 -->
      <g style="fill: #43544d" transform="translate(24.242031 193.213695) scale(0.1 -0.1)">
       <defs>
        <path id="DejaVuSans-2212" d="M 678 2272 
L 4684 2272 
L 4684 1741 
L 678 1741 
L 678 2272 
z
" transform="scale(0.015625)"/>
        <path id="DejaVuSans-30" d="M 2034 4250 
Q 1547 4250 1301 3770 
Q 1056 3291 1056 2328 
Q 1056 1369 1301 889 
Q 1547 409 2034 409 
Q 2525 409 2770 889 
Q 3016 1369 3016 2328 
Q 3016 3291 2770 3770 
Q 2525 4250 2034 4250 
z
M 2034 4750 
Q 2819 4750 3233 4129 
Q 3647 3509 3647 2328 
Q 3647 1150 3233 529 
Q 2819 -91 2034 -91 
Q 1250 -91 836 529 
Q 422 1150 422 2328 
Q 422 3509 836 4129 
Q 1250 4750 2034 4750 
z
" transform="scale(0.015625)"/>
        <path id="DejaVuSans-2e" d="M 684 794 
L 1344 794 
L 1344 0 
L 684 0 
L 684 794 
z
" transform="scale(0.015625)"/>
        <path id="DejaVuSans-35" d="M 691 4666 
L 3169 4666 
L 3169 4134 
L 1269 4134 
L 1269 2991 
Q 1406 3038 1543 3061 
Q 1681 3084 1819 3084 
Q 2600 3084 3056 2656 
Q 3513 2228 3513 1497 
Q 3513 744 3044 326 
Q 2575 -91 1722 -91 
Q 1428 -91 1123 -41 
Q 819 9 494 109 
L 494 744 
Q 775 591 1075 516 
Q 1375 441 1709 441 
Q 2250 441 2565 725 
Q 2881 1009 2881 1497 
Q 2881 1984 2565 2268 
Q 2250 2553 1709 2553 
Q 1456 2553 1204 2497 
Q 953 2441 691 2322 
L 691 4666 
z
" transform="scale(0.015625)"/>
       </defs>
       <use xlink:href="#DejaVuSans-2212"/>
       <use xlink:href="#DejaVuSans-30" transform="translate(83.789062 0)"/>
       <use xlink:href="#DejaVuSans-2e" transform="translate(147.412109 0)"/>
       <use xlink:href="#DejaVuSans-30" transform="translate(179.199219 0)"/>
       <use xlink:href="#DejaVuSans-35" transform="translate(242.822266 0)"/>
      </g>
     </g>
    </g>
    <g id="ytick_2">
     <g id="line2d_17">
      <path d="M 61.887344 165.177615 
L 346.601229 165.177615 
" clip-path="url(#pf545037205)" style="fill: none; stroke: #b0b0b0; stroke-opacity: 0.18; stroke-width: 0.8; stroke-linecap: square"/>
     </g>
     <g id="line2d_18">
      <g>
       <use xlink:href="#m367feffceb" x="61.887344" y="165.177615" style="fill: #43544d; stroke: #43544d; stroke-width: 0.8"/>
      </g>
     </g>
     <g id="text_2">
      <!-- 0.00 -->
      <g style="fill: #43544d" transform="translate(32.621719 168.976834) scale(0.1 -0.1)">
       <use xlink:href="#DejaVuSans-30"/>
       <use xlink:href="#DejaVuSans-2e" transform="translate(63.623047 0)"/>
       <use xlink:href="#DejaVuSans-30" transform="translate(95.410156 0)"/>
       <use xlink:href="#DejaVuSans-30" transform="translate(159.033203 0)"/>
      </g>
     </g>
    </g>
    <g id="ytick_3">
     <g id="line2d_19">
      <path d="M 61.887344 140.940755 
L 346.601229 140.940755 
" clip-path="url(#pf545037205)" style="fill: none; stroke: #b0b0b0; stroke-opacity: 0.18; stroke-width: 0.8; stroke-linecap: square"/>
     </g>
     <g id="line2d_20">
      <g>
       <use xlink:href="#m367feffceb" x="61.887344" y="140.940755" style="fill: #43544d; stroke: #43544d; stroke-width: 0.8"/>
      </g>
     </g>
     <g id="text_3">
      <!-- 0.05 -->
      <g style="fill: #43544d" transform="translate(32.621719 144.739973) scale(0.1 -0.1)">
       <use xlink:href="#DejaVuSans-30"/>
       <use xlink:href="#DejaVuSans-2e" transform="translate(63.623047 0)"/>
       <use xlink:href="#DejaVuSans-30" transform="translate(95.410156 0)"/>
       <use xlink:href="#DejaVuSans-35" transform="translate(159.033203 0)"/>
      </g>
     </g>
    </g>
    <g id="ytick_4">
     <g id="line2d_21">
      <path d="M 61.887344 116.703894 
L 346.601229 116.703894 
" clip-path="url(#pf545037205)" style="fill: none; stroke: #b0b0b0; stroke-opacity: 0.18; stroke-width: 0.8; stroke-linecap: square"/>
     </g>
     <g id="line2d_22">
      <g>
       <use xlink:href="#m367feffceb" x="61.887344" y="116.703894" style="fill: #43544d; stroke: #43544d; stroke-width: 0.8"/>
      </g>
     </g>
     <g id="text_4">
      <!-- 0.10 -->
      <g style="fill: #43544d" transform="translate(32.621719 120.503113) scale(0.1 -0.1)">
       <defs>
        <path id="DejaVuSans-31" d="M 794 531 
L 1825 531 
L 1825 4091 
L 703 3866 
L 703 4441 
L 1819 4666 
L 2450 4666 
L 2450 531 
L 3481 531 
L 3481 0 
L 794 0 
L 794 531 
z
" transform="scale(0.015625)"/>
       </defs>
       <use xlink:href="#DejaVuSans-30"/>
       <use xlink:href="#DejaVuSans-2e" transform="translate(63.623047 0)"/>
       <use xlink:href="#DejaVuSans-31" transform="translate(95.410156 0)"/>
       <use xlink:href="#DejaVuSans-30" transform="translate(159.033203 0)"/>
      </g>
     </g>
    </g>
    <g id="ytick_5">
     <g id="line2d_23">
      <path d="M 61.887344 92.467033 
L 346.601229 92.467033 
" clip-path="url(#pf545037205)" style="fill: none; stroke: #b0b0b0; stroke-opacity: 0.18; stroke-width: 0.8; stroke-linecap: square"/>
     </g>
     <g id="line2d_24">
      <g>
       <use xlink:href="#m367feffceb" x="61.887344" y="92.467033" style="fill: #43544d; stroke: #43544d; stroke-width: 0.8"/>
      </g>
     </g>
     <g id="text_5">
      <!-- 0.15 -->
      <g style="fill: #43544d" transform="translate(32.621719 96.266252) scale(0.1 -0.1)">
       <use xlink:href="#DejaVuSans-30"/>
       <use xlink:href="#DejaVuSans-2e" transform="translate(63.623047 0)"/>
       <use xlink:href="#DejaVuSans-31" transform="translate(95.410156 0)"/>
       <use xlink:href="#DejaVuSans-35" transform="translate(159.033203 0)"/>
      </g>
     </g>
    </g>
    <g id="ytick_6">
     <g id="line2d_25">
      <path d="M 61.887344 68.230173 
L 346.601229 68.230173 
" clip-path="url(#pf545037205)" style="fill: none; stroke: #b0b0b0; stroke-opacity: 0.18; stroke-width: 0.8; stroke-linecap: square"/>
     </g>
     <g id="line2d_26">
      <g>
       <use xlink:href="#m367feffceb" x="61.887344" y="68.230173" style="fill: #43544d; stroke: #43544d; stroke-width: 0.8"/>
      </g>
     </g>
     <g id="text_6">
      <!-- 0.20 -->
      <g style="fill: #43544d" transform="translate(32.621719 72.029392) scale(0.1 -0.1)">
       <defs>
        <path id="DejaVuSans-32" d="M 1228 531 
L 3431 531 
L 3431 0 
L 469 0 
L 469 531 
Q 828 903 1448 1529 
Q 2069 2156 2228 2338 
Q 2531 2678 2651 2914 
Q 2772 3150 2772 3378 
Q 2772 3750 2511 3984 
Q 2250 4219 1831 4219 
Q 1534 4219 1204 4116 
Q 875 4013 500 3803 
L 500 4441 
Q 881 4594 1212 4672 
Q 1544 4750 1819 4750 
Q 2544 4750 2975 4387 
Q 3406 4025 3406 3419 
Q 3406 3131 3298 2873 
Q 3191 2616 2906 2266 
Q 2828 2175 2409 1742 
Q 1991 1309 1228 531 
z
" transform="scale(0.015625)"/>
       </defs>
       <use xlink:href="#DejaVuSans-30"/>
       <use xlink:href="#DejaVuSans-2e" transform="translate(63.623047 0)"/>
       <use xlink:href="#DejaVuSans-32" transform="translate(95.410156 0)"/>
       <use xlink:href="#DejaVuSans-30" transform="translate(159.033203 0)"/>
      </g>
     </g>
    </g>
    <g id="ytick_7">
     <g id="line2d_27">
      <path d="M 61.887344 43.993312 
L 346.601229 43.993312 
" clip-path="url(#pf545037205)" style="fill: none; stroke: #b0b0b0; stroke-opacity: 0.18; stroke-width: 0.8; stroke-linecap: square"/>
     </g>
     <g id="line2d_28">
      <g>
       <use xlink:href="#m367feffceb" x="61.887344" y="43.993312" style="fill: #43544d; stroke: #43544d; stroke-width: 0.8"/>
      </g>
     </g>
     <g id="text_7">
      <!-- 0.25 -->
      <g style="fill: #43544d" transform="translate(32.621719 47.792531) scale(0.1 -0.1)">
       <use xlink:href="#DejaVuSans-30"/>
       <use xlink:href="#DejaVuSans-2e" transform="translate(63.623047 0)"/>
       <use xlink:href="#DejaVuSans-32" transform="translate(95.410156 0)"/>
       <use xlink:href="#DejaVuSans-35" transform="translate(159.033203 0)"/>
      </g>
     </g>
    </g>
    <g id="text_8">
     <!-- Aligned pattern correlation -->
     <g style="fill: #21352f" transform="translate(18.058359 185.122407) rotate(-90) scale(0.105 -0.105)">
      <defs>
       <path id="DejaVuSans-41" d="M 2188 4044 
L 1331 1722 
L 3047 1722 
L 2188 4044 
z
M 1831 4666 
L 2547 4666 
L 4325 0 
L 3669 0 
L 3244 1197 
L 1141 1197 
L 716 0 
L 50 0 
L 1831 4666 
z
" transform="scale(0.015625)"/>
       <path id="DejaVuSans-6c" d="M 603 4863 
L 1178 4863 
L 1178 0 
L 603 0 
L 603 4863 
z
" transform="scale(0.015625)"/>
       <path id="DejaVuSans-69" d="M 603 3500 
L 1178 3500 
L 1178 0 
L 603 0 
L 603 3500 
z
M 603 4863 
L 1178 4863 
L 1178 4134 
L 603 4134 
L 603 4863 
z
" transform="scale(0.015625)"/>
       <path id="DejaVuSans-67" d="M 2906 1791 
Q 2906 2416 2648 2759 
Q 2391 3103 1925 3103 
Q 1463 3103 1205 2759 
Q 947 2416 947 1791 
Q 947 1169 1205 825 
Q 1463 481 1925 481 
Q 2391 481 2648 825 
Q 2906 1169 2906 1791 
z
M 3481 434 
Q 3481 -459 3084 -895 
Q 2688 -1331 1869 -1331 
Q 1566 -1331 1297 -1286 
Q 1028 -1241 775 -1147 
L 775 -588 
Q 1028 -725 1275 -790 
Q 1522 -856 1778 -856 
Q 2344 -856 2625 -561 
Q 2906 -266 2906 331 
L 2906 616 
Q 2728 306 2450 153 
Q 2172 0 1784 0 
Q 1141 0 747 490 
Q 353 981 353 1791 
Q 353 2603 747 3093 
Q 1141 3584 1784 3584 
Q 2172 3584 2450 3431 
Q 2728 3278 2906 2969 
L 2906 3500 
L 3481 3500 
L 3481 434 
z
" transform="scale(0.015625)"/>
       <path id="DejaVuSans-6e" d="M 3513 2113 
L 3513 0 
L 2938 0 
L 2938 2094 
Q 2938 2591 2744 2837 
Q 2550 3084 2163 3084 
Q 1697 3084 1428 2787 
Q 1159 2491 1159 1978 
L 1159 0 
L 581 0 
L 581 3500 
L 1159 3500 
L 1159 2956 
Q 1366 3272 1645 3428 
Q 1925 3584 2291 3584 
Q 2894 3584 3203 3211 
Q 3513 2838 3513 2113 
z
" transform="scale(0.015625)"/>
       <path id="DejaVuSans-65" d="M 3597 1894 
L 3597 1613 
L 953 1613 
Q 991 1019 1311 708 
Q 1631 397 2203 397 
Q 2534 397 2845 478 
Q 3156 559 3463 722 
L 3463 178 
Q 3153 47 2828 -22 
Q 2503 -91 2169 -91 
Q 1331 -91 842 396 
Q 353 884 353 1716 
Q 353 2575 817 3079 
Q 1281 3584 2069 3584 
Q 2775 3584 3186 3129 
Q 3597 2675 3597 1894 
z
M 3022 2063 
Q 3016 2534 2758 2815 
Q 2500 3097 2075 3097 
Q 1594 3097 1305 2825 
Q 1016 2553 972 2059 
L 3022 2063 
z
" transform="scale(0.015625)"/>
       <path id="DejaVuSans-64" d="M 2906 2969 
L 2906 4863 
L 3481 4863 
L 3481 0 
L 2906 0 
L 2906 525 
Q 2725 213 2448 61 
Q 2172 -91 1784 -91 
Q 1150 -91 751 415 
Q 353 922 353 1747 
Q 353 2572 751 3078 
Q 1150 3584 1784 3584 
Q 2172 3584 2448 3432 
Q 2725 3281 2906 2969 
z
M 947 1747 
Q 947 1113 1208 752 
Q 1469 391 1925 391 
Q 2381 391 2643 752 
Q 2906 1113 2906 1747 
Q 2906 2381 2643 2742 
Q 2381 3103 1925 3103 
Q 1469 3103 1208 2742 
Q 947 2381 947 1747 
z
" transform="scale(0.015625)"/>
       <path id="DejaVuSans-20" transform="scale(0.015625)"/>
       <path id="DejaVuSans-70" d="M 1159 525 
L 1159 -1331 
L 581 -1331 
L 581 3500 
L 1159 3500 
L 1159 2969 
Q 1341 3281 1617 3432 
Q 1894 3584 2278 3584 
Q 2916 3584 3314 3078 
Q 3713 2572 3713 1747 
Q 3713 922 3314 415 
Q 2916 -91 2278 -91 
Q 1894 -91 1617 61 
Q 1341 213 1159 525 
z
M 3116 1747 
Q 3116 2381 2855 2742 
Q 2594 3103 2138 3103 
Q 1681 3103 1420 2742 
Q 1159 2381 1159 1747 
Q 1159 1113 1420 752 
Q 1681 391 2138 391 
Q 2594 391 2855 752 
Q 3116 1113 3116 1747 
z
" transform="scale(0.015625)"/>
       <path id="DejaVuSans-61" d="M 2194 1759 
Q 1497 1759 1228 1600 
Q 959 1441 959 1056 
Q 959 750 1161 570 
Q 1363 391 1709 391 
Q 2188 391 2477 730 
Q 2766 1069 2766 1631 
L 2766 1759 
L 2194 1759 
z
M 3341 1997 
L 3341 0 
L 2766 0 
L 2766 531 
Q 2569 213 2275 61 
Q 1981 -91 1556 -91 
Q 1019 -91 701 211 
Q 384 513 384 1019 
Q 384 1609 779 1909 
Q 1175 2209 1959 2209 
L 2766 2209 
L 2766 2266 
Q 2766 2663 2505 2880 
Q 2244 3097 1772 3097 
Q 1472 3097 1187 3025 
Q 903 2953 641 2809 
L 641 3341 
Q 956 3463 1253 3523 
Q 1550 3584 1831 3584 
Q 2591 3584 2966 3190 
Q 3341 2797 3341 1997 
z
" transform="scale(0.015625)"/>
       <path id="DejaVuSans-74" d="M 1172 4494 
L 1172 3500 
L 2356 3500 
L 2356 3053 
L 1172 3053 
L 1172 1153 
Q 1172 725 1289 603 
Q 1406 481 1766 481 
L 2356 481 
L 2356 0 
L 1766 0 
Q 1100 0 847 248 
Q 594 497 594 1153 
L 594 3053 
L 172 3053 
L 172 3500 
L 594 3500 
L 594 4494 
L 1172 4494 
z
" transform="scale(0.015625)"/>
       <path id="DejaVuSans-72" d="M 2631 2963 
Q 2534 3019 2420 3045 
Q 2306 3072 2169 3072 
Q 1681 3072 1420 2755 
Q 1159 2438 1159 1844 
L 1159 0 
L 581 0 
L 581 3500 
L 1159 3500 
L 1159 2956 
Q 1341 3275 1631 3429 
Q 1922 3584 2338 3584 
Q 2397 3584 2469 3576 
Q 2541 3569 2628 3553 
L 2631 2963 
z
" transform="scale(0.015625)"/>
       <path id="DejaVuSans-63" d="M 3122 3366 
L 3122 2828 
Q 2878 2963 2633 3030 
Q 2388 3097 2138 3097 
Q 1578 3097 1268 2742 
Q 959 2388 959 1747 
Q 959 1106 1268 751 
Q 1578 397 2138 397 
Q 2388 397 2633 464 
Q 2878 531 3122 666 
L 3122 134 
Q 2881 22 2623 -34 
Q 2366 -91 2075 -91 
Q 1284 -91 818 406 
Q 353 903 353 1747 
Q 353 2603 823 3093 
Q 1294 3584 2113 3584 
Q 2378 3584 2631 3529 
Q 2884 3475 3122 3366 
z
" transform="scale(0.015625)"/>
       <path id="DejaVuSans-6f" d="M 1959 3097 
Q 1497 3097 1228 2736 
Q 959 2375 959 1747 
Q 959 1119 1226 758 
Q 1494 397 1959 397 
Q 2419 397 2687 759 
Q 2956 1122 2956 1747 
Q 2956 2369 2687 2733 
Q 2419 3097 1959 3097 
z
M 1959 3584 
Q 2709 3584 3137 3096 
Q 3566 2609 3566 1747 
Q 3566 888 3137 398 
Q 2709 -91 1959 -91 
Q 1206 -91 779 398 
Q 353 888 353 1747 
Q 353 2609 779 3096 
Q 1206 3584 1959 3584 
z
" transform="scale(0.015625)"/>
      </defs>
      <use xlink:href="#DejaVuSans-41"/>
      <use xlink:href="#DejaVuSans-6c" transform="translate(68.408203 0)"/>
      <use xlink:href="#DejaVuSans-69" transform="translate(96.191406 0)"/>
      <use xlink:href="#DejaVuSans-67" transform="translate(123.974609 0)"/>
      <use xlink:href="#DejaVuSans-6e" transform="translate(187.451172 0)"/>
      <use xlink:href="#DejaVuSans-65" transform="translate(250.830078 0)"/>
      <use xlink:href="#DejaVuSans-64" transform="translate(312.353516 0)"/>
      <use xlink:href="#DejaVuSans-20" transform="translate(375.830078 0)"/>
      <use xlink:href="#DejaVuSans-70" transform="translate(407.617188 0)"/>
      <use xlink:href="#DejaVuSans-61" transform="translate(471.09375 0)"/>
      <use xlink:href="#DejaVuSans-74" transform="translate(532.373047 0)"/>
      <use xlink:href="#DejaVuSans-74" transform="translate(571.582031 0)"/>
      <use xlink:href="#DejaVuSans-65" transform="translate(610.791016 0)"/>
      <use xlink:href="#DejaVuSans-72" transform="translate(672.314453 0)"/>
      <use xlink:href="#DejaVuSans-6e" transform="translate(711.677734 0)"/>
      <use xlink:href="#DejaVuSans-20" transform="translate(775.056641 0)"/>
      <use xlink:href="#DejaVuSans-63" transform="translate(806.84375 0)"/>
      <use xlink:href="#DejaVuSans-6f" transform="translate(861.824219 0)"/>
      <use xlink:href="#DejaVuSans-72" transform="translate(923.005859 0)"/>
      <use xlink:href="#DejaVuSans-72" transform="translate(962.369141 0)"/>
      <use xlink:href="#DejaVuSans-65" transform="translate(1001.232422 0)"/>
      <use xlink:href="#DejaVuSans-6c" transform="translate(1062.755859 0)"/>
      <use xlink:href="#DejaVuSans-61" transform="translate(1090.539062 0)"/>
      <use xlink:href="#DejaVuSans-74" transform="translate(1151.818359 0)"/>
      <use xlink:href="#DejaVuSans-69" transform="translate(1191.027344 0)"/>
      <use xlink:href="#DejaVuSans-6f" transform="translate(1218.810547 0)"/>
      <use xlink:href="#DejaVuSans-6e" transform="translate(1279.992188 0)"/>
     </g>
    </g>
   </g>
   <g id="line2d_29">
    <path d="M 61.887344 169.230995 
L 63.073652 171.509134 
L 64.259959 168.653903 
L 65.446267 165.422538 
L 66.632575 163.602303 
L 69.005191 161.751228 
L 70.191499 164.351239 
L 71.377807 168.119717 
L 72.564114 166.509849 
L 73.750422 167.637994 
L 74.93673 165.27101 
L 76.123038 163.470219 
L 77.309346 164.546709 
L 78.495654 163.640806 
L 79.681962 165.790487 
L 80.868269 165.721795 
L 82.054577 165.797444 
L 83.240885 162.893141 
L 84.427193 164.809457 
L 85.613501 163.248516 
L 86.799809 164.261867 
L 87.986117 164.083145 
L 89.172424 164.065111 
L 90.358732 163.848262 
L 91.54504 164.400265 
L 92.731348 167.93213 
L 93.917656 168.99794 
L 95.103964 168.175511 
L 96.290272 165.501383 
L 97.476579 164.318106 
L 98.662887 163.808857 
L 99.849195 165.668357 
L 101.035503 163.134928 
L 102.221811 164.363762 
L 103.408119 163.47813 
L 104.594427 164.351195 
L 105.780734 163.739049 
L 106.967042 168.233196 
L 108.15335 167.712534 
L 109.339658 172.442861 
L 110.525966 166.919993 
L 111.712274 168.076085 
L 112.898582 163.474659 
L 114.084889 165.066682 
L 115.271197 162.309515 
L 116.457505 162.141009 
L 117.643813 165.935773 
L 118.830121 163.210099 
L 120.016429 165.48213 
L 121.202737 165.098436 
L 122.389044 165.822216 
L 123.575352 159.653517 
L 124.76166 165.083554 
L 125.947968 169.195178 
L 127.134276 165.333303 
L 128.320584 167.402912 
L 129.506892 168.22875 
L 130.693199 166.236212 
L 131.879507 163.269984 
L 133.065815 167.307846 
L 134.252123 165.211744 
L 135.438431 166.353655 
L 136.624739 163.667272 
L 137.811047 166.75971 
L 138.997354 160.952504 
L 140.183662 160.271375 
L 141.36997 162.709837 
L 142.556278 164.338843 
L 143.742586 163.274473 
L 144.928894 166.872666 
L 146.115202 167.629189 
L 147.301509 162.688945 
L 148.487817 164.847346 
L 149.674125 163.15871 
L 150.860433 163.544705 
L 152.046741 159.565283 
L 153.233049 165.979959 
L 154.419357 170.211747 
L 155.605664 166.926454 
L 156.791972 167.253133 
L 157.97828 169.814099 
L 159.164588 158.735287 
L 160.350896 161.682159 
L 161.537204 166.81797 
L 162.723512 169.257343 
L 163.909819 167.734259 
L 165.096127 168.250975 
L 166.282435 167.679112 
L 167.468743 160.671996 
L 168.655051 160.860037 
L 169.841359 162.733535 
L 171.027667 165.595236 
L 172.213974 162.00683 
L 173.400282 164.008648 
L 174.58659 167.501889 
L 175.772898 164.823001 
L 176.959206 161.229088 
L 178.145514 165.812264 
L 179.331822 167.755636 
L 180.518129 163.980365 
L 181.704437 168.69591 
L 182.890745 169.107911 
L 184.077053 165.532539 
L 185.263361 163.462647 
L 187.635977 161.755154 
L 188.822284 162.4432 
L 190.008592 168.247437 
L 191.1949 174.903031 
L 192.381208 168.331239 
L 193.567516 162.901566 
L 194.753824 163.734734 
L 197.126439 158.72778 
L 198.312747 171.096518 
L 199.499055 178.808136 
L 200.685363 161.695796 
L 201.871671 154.314315 
L 203.057979 109.322325 
L 204.244287 38.781384 
L 205.430594 70.395613 
L 206.616902 139.490117 
L 207.80321 178.11707 
L 208.989518 177.401552 
L 210.175826 190.409055 
L 211.362134 180.932868 
L 212.548442 162.141616 
L 213.734749 157.171265 
L 214.921057 164.704272 
L 216.107365 168.458008 
L 217.293673 168.755601 
L 218.479981 170.954222 
L 219.666289 170.355304 
L 220.852597 165.187378 
L 222.038904 158.629983 
L 224.41152 164.585019 
L 225.597828 166.274387 
L 226.784136 169.639501 
L 227.970444 169.583517 
L 229.156752 164.206917 
L 230.343059 162.762174 
L 231.529367 164.792048 
L 232.715675 164.203136 
L 233.901983 165.608039 
L 235.088291 167.217648 
L 236.274599 164.124286 
L 237.460907 163.419637 
L 239.833522 162.901038 
L 241.01983 163.432344 
L 242.206138 161.606146 
L 243.392446 167.507133 
L 244.578754 168.072412 
L 245.765062 168.496597 
L 246.951369 166.304918 
L 248.137677 168.214439 
L 249.323985 162.930334 
L 250.510293 161.487118 
L 251.696601 163.8935 
L 252.882909 165.808573 
L 254.069217 164.434651 
L 255.255524 166.960636 
L 256.441832 170.525459 
L 257.62814 162.893977 
L 258.814448 159.523118 
L 260.000756 163.807578 
L 261.187064 163.495028 
L 262.373372 162.462778 
L 263.559679 165.388744 
L 264.745987 165.980088 
L 265.932295 163.355058 
L 267.118603 162.700985 
L 268.304911 163.840513 
L 269.491219 162.415222 
L 270.677527 164.144354 
L 271.863834 167.931852 
L 273.050142 164.301663 
L 274.23645 165.562406 
L 275.422758 167.327308 
L 276.609066 167.241124 
L 277.795374 165.66283 
L 278.981682 165.719646 
L 280.167989 167.614272 
L 281.354297 166.53008 
L 282.540605 164.949787 
L 283.726913 167.937846 
L 284.913221 164.934416 
L 287.285837 165.889958 
L 288.472144 166.210924 
L 289.658452 164.09754 
L 290.84476 164.402247 
L 292.031068 166.724319 
L 293.217376 164.567735 
L 294.403684 163.510879 
L 295.589992 164.489055 
L 296.776299 163.585407 
L 297.962607 166.545327 
L 299.148915 165.31793 
L 300.335223 170.860752 
L 301.521531 169.58883 
L 302.707839 167.512372 
L 303.894147 162.05724 
L 305.080454 162.531858 
L 306.266762 161.410806 
L 307.45307 160.825873 
L 308.639378 164.229068 
L 309.825686 165.275241 
L 311.011994 163.811192 
L 312.198302 163.222298 
L 313.384609 166.32645 
L 314.570917 166.734717 
L 315.757225 170.782693 
L 316.943533 167.716398 
L 318.129841 165.459239 
L 319.316149 160.911276 
L 320.502457 163.771123 
L 321.688764 160.893232 
L 322.875072 160.962345 
L 324.06138 164.878946 
L 325.247688 165.197845 
L 326.433996 164.317033 
L 327.620304 166.916962 
L 328.806612 164.285942 
L 329.992919 165.512445 
L 331.179227 164.689522 
L 332.365535 169.273568 
L 333.551843 165.109422 
L 334.738151 167.87612 
L 335.924459 166.205921 
L 337.110767 167.1945 
L 338.297074 166.715648 
L 339.483382 165.272474 
L 340.66969 161.406877 
L 341.855998 164.209096 
L 343.042306 159.755367 
L 344.228614 166.831872 
L 345.414922 166.940003 
L 346.601229 171.156354 
L 346.601229 171.156354 
" clip-path="url(#pf545037205)" style="fill: none; stroke: #197885; stroke-width: 1.7; stroke-linecap: square"/>
   </g>
   <g id="line2d_30">
    <path d="M 61.887344 167.439268 
L 63.073652 166.9354 
L 64.259959 165.065729 
L 65.446267 165.665449 
L 66.632575 164.055768 
L 67.818883 165.494284 
L 69.005191 164.997127 
L 70.191499 165.708122 
L 71.377807 165.700285 
L 73.750422 164.651593 
L 74.93673 164.662232 
L 76.123038 164.227113 
L 77.309346 166.214115 
L 78.495654 164.50388 
L 79.681962 165.002601 
L 80.868269 165.960716 
L 82.054577 165.236521 
L 83.240885 164.364947 
L 84.427193 164.353009 
L 85.613501 164.633162 
L 86.799809 163.749385 
L 87.986117 165.536229 
L 89.172424 165.371807 
L 90.358732 164.819328 
L 91.54504 168.142733 
L 92.731348 165.950827 
L 93.917656 165.545692 
L 95.103964 165.29873 
L 96.290272 164.494007 
L 97.476579 164.232282 
L 98.662887 166.282293 
L 102.221811 163.890078 
L 103.408119 163.892895 
L 104.594427 165.443609 
L 105.780734 164.360191 
L 106.967042 168.93439 
L 108.15335 165.142507 
L 109.339658 164.917185 
L 110.525966 165.614064 
L 111.712274 166.060443 
L 112.898582 164.222987 
L 114.084889 164.172522 
L 115.271197 165.338472 
L 116.457505 164.486179 
L 117.643813 166.500768 
L 118.830121 164.831078 
L 120.016429 165.200521 
L 121.202737 164.643885 
L 122.389044 166.685259 
L 123.575352 164.964418 
L 125.947968 165.900564 
L 127.134276 167.058867 
L 128.320584 164.869645 
L 129.506892 163.862877 
L 130.693199 164.653721 
L 131.879507 164.196936 
L 133.065815 164.536739 
L 134.252123 165.304124 
L 135.438431 167.470351 
L 136.624739 165.646811 
L 137.811047 164.057398 
L 138.997354 163.657169 
L 140.183662 164.568389 
L 141.36997 164.851381 
L 143.742586 164.858921 
L 144.928894 163.554895 
L 146.115202 164.288141 
L 147.301509 164.133672 
L 148.487817 165.459142 
L 149.674125 164.468151 
L 150.860433 164.831258 
L 152.046741 166.44915 
L 153.233049 164.244207 
L 154.419357 165.197289 
L 155.605664 167.285113 
L 156.791972 164.685544 
L 157.97828 165.601047 
L 159.164588 165.382617 
L 160.350896 166.640739 
L 161.537204 166.230745 
L 162.723512 164.268556 
L 163.909819 166.396284 
L 165.096127 163.805604 
L 166.282435 164.405491 
L 167.468743 164.437263 
L 168.655051 164.757362 
L 169.841359 165.265481 
L 171.027667 166.179338 
L 172.213974 165.255912 
L 173.400282 165.094085 
L 174.58659 164.552836 
L 178.145514 164.410618 
L 179.331822 166.953434 
L 180.518129 165.056032 
L 181.704437 166.053089 
L 182.890745 166.415155 
L 184.077053 164.860923 
L 185.263361 164.402894 
L 186.449669 162.575801 
L 187.635977 164.495372 
L 188.822284 167.992585 
L 190.008592 165.948423 
L 191.1949 167.488687 
L 192.381208 163.984314 
L 193.567516 163.473242 
L 194.753824 161.199433 
L 195.940132 163.106978 
L 197.126439 168.510987 
L 198.312747 170.514097 
L 199.499055 166.052213 
L 200.685363 160.583509 
L 201.871671 143.210647 
L 203.057979 118.322503 
L 204.244287 109.648098 
L 205.430594 131.05005 
L 206.616902 159.727173 
L 207.80321 163.16088 
L 208.989518 168.666163 
L 210.175826 167.097667 
L 211.362134 164.59415 
L 212.548442 165.805268 
L 213.734749 164.442718 
L 214.921057 165.494659 
L 216.107365 164.364366 
L 217.293673 167.223072 
L 218.479981 169.057784 
L 219.666289 163.772236 
L 220.852597 165.588729 
L 222.038904 164.996494 
L 223.225212 163.246491 
L 224.41152 165.97696 
L 225.597828 167.878269 
L 226.784136 165.750535 
L 227.970444 164.913747 
L 229.156752 166.728918 
L 231.529367 163.530053 
L 232.715675 164.606417 
L 233.901983 164.641487 
L 235.088291 166.489837 
L 236.274599 164.986483 
L 237.460907 166.186306 
L 238.647214 164.269368 
L 239.833522 164.019856 
L 241.01983 164.579654 
L 242.206138 166.97695 
L 243.392446 167.239811 
L 244.578754 164.75632 
L 245.765062 166.309709 
L 246.951369 165.988708 
L 248.137677 164.137486 
L 249.323985 163.021256 
L 250.510293 165.223612 
L 251.696601 165.719977 
L 252.882909 165.479346 
L 254.069217 166.186084 
L 255.255524 164.541528 
L 256.441832 164.638739 
L 257.62814 164.863257 
L 258.814448 166.006657 
L 260.000756 165.348555 
L 261.187064 165.416994 
L 262.373372 164.554334 
L 263.559679 165.155686 
L 264.745987 165.630483 
L 265.932295 163.385905 
L 267.118603 165.230236 
L 268.304911 163.888718 
L 269.491219 164.478003 
L 270.677527 165.450318 
L 271.863834 165.560184 
L 273.050142 166.333996 
L 274.23645 165.843829 
L 275.422758 165.660843 
L 276.609066 164.430304 
L 277.795374 164.311516 
L 278.981682 165.59883 
L 280.167989 165.771718 
L 281.354297 165.742151 
L 282.540605 167.12094 
L 283.726913 165.908601 
L 284.913221 164.124284 
L 286.099529 164.718355 
L 287.285837 165.940122 
L 288.472144 164.659 
L 289.658452 167.413895 
L 292.031068 164.730801 
L 293.217376 163.816003 
L 294.403684 165.283322 
L 295.589992 164.007449 
L 296.776299 165.212871 
L 297.962607 165.552786 
L 299.148915 165.733213 
L 300.335223 166.752342 
L 301.521531 165.168417 
L 302.707839 164.908648 
L 303.894147 165.008727 
L 305.080454 163.721306 
L 306.266762 165.10303 
L 307.45307 164.780393 
L 308.639378 164.914068 
L 309.825686 164.797502 
L 311.011994 165.241161 
L 312.198302 165.413781 
L 313.384609 166.410817 
L 314.570917 165.929189 
L 315.757225 166.173522 
L 316.943533 164.466386 
L 318.129841 164.363444 
L 319.316149 163.253887 
L 320.502457 163.336485 
L 321.688764 164.516996 
L 322.875072 164.115219 
L 324.06138 165.152317 
L 325.247688 165.648249 
L 326.433996 166.667303 
L 328.806612 165.545627 
L 329.992919 165.557989 
L 331.179227 164.714422 
L 332.365535 165.112465 
L 334.738151 166.487301 
L 335.924459 165.318635 
L 338.297074 165.979438 
L 339.483382 163.999468 
L 340.66969 163.844819 
L 341.855998 163.468102 
L 343.042306 165.524418 
L 344.228614 166.235068 
L 345.414922 165.692356 
L 346.601229 168.480644 
L 346.601229 168.480644 
" clip-path="url(#pf545037205)" style="fill: none; stroke: #c1682d; stroke-width: 1.7; stroke-linecap: square"/>
   </g>
   <g id="line2d_31">
    <path d="M 204.244287 197.990439 
L 204.244287 31.2 
" clip-path="url(#pf545037205)" style="fill: none; stroke-dasharray: 1,1.65; stroke-dashoffset: 0; stroke: #9aa39c"/>
   </g>
   <g id="line2d_32">
    <path d="M 61.887344 165.177615 
L 346.601229 165.177615 
" clip-path="url(#pf545037205)" style="fill: none; stroke: #adb5ad; stroke-width: 0.7; stroke-linecap: square"/>
   </g>
   <g id="patch_3">
    <path d="M 61.887344 197.990439 
L 61.887344 31.2 
" style="fill: none; stroke: #62716b; stroke-width: 0.8; stroke-linejoin: miter; stroke-linecap: square"/>
   </g>
   <g id="patch_4">
    <path d="M 61.887344 197.990439 
L 346.601229 197.990439 
" style="fill: none; stroke: #62716b; stroke-width: 0.8; stroke-linejoin: miter; stroke-linecap: square"/>
   </g>
   <g id="text_9">
    <!-- (b) Electron temperature $T_e$ -->
    <g style="fill: #21352f" transform="translate(61.887344 19.2) scale(0.12 -0.12)">
     <defs>
      <path id="DejaVuSans-28" d="M 1984 4856 
Q 1566 4138 1362 3434 
Q 1159 2731 1159 2009 
Q 1159 1288 1364 580 
Q 1569 -128 1984 -844 
L 1484 -844 
Q 1016 -109 783 600 
Q 550 1309 550 2009 
Q 550 2706 781 3412 
Q 1013 4119 1484 4856 
L 1984 4856 
z
" transform="scale(0.015625)"/>
      <path id="DejaVuSans-62" d="M 3116 1747 
Q 3116 2381 2855 2742 
Q 2594 3103 2138 3103 
Q 1681 3103 1420 2742 
Q 1159 2381 1159 1747 
Q 1159 1113 1420 752 
Q 1681 391 2138 391 
Q 2594 391 2855 752 
Q 3116 1113 3116 1747 
z
M 1159 2969 
Q 1341 3281 1617 3432 
Q 1894 3584 2278 3584 
Q 2916 3584 3314 3078 
Q 3713 2572 3713 1747 
Q 3713 922 3314 415 
Q 2916 -91 2278 -91 
Q 1894 -91 1617 61 
Q 1341 213 1159 525 
L 1159 0 
L 581 0 
L 581 4863 
L 1159 4863 
L 1159 2969 
z
" transform="scale(0.015625)"/>
      <path id="DejaVuSans-29" d="M 513 4856 
L 1013 4856 
Q 1481 4119 1714 3412 
Q 1947 2706 1947 2009 
Q 1947 1309 1714 600 
Q 1481 -109 1013 -844 
L 513 -844 
Q 928 -128 1133 580 
Q 1338 1288 1338 2009 
Q 1338 2731 1133 3434 
Q 928 4138 513 4856 
z
" transform="scale(0.015625)"/>
      <path id="DejaVuSans-45" d="M 628 4666 
L 3578 4666 
L 3578 4134 
L 1259 4134 
L 1259 2753 
L 3481 2753 
L 3481 2222 
L 1259 2222 
L 1259 531 
L 3634 531 
L 3634 0 
L 628 0 
L 628 4666 
z
" transform="scale(0.015625)"/>
      <path id="DejaVuSans-6d" d="M 3328 2828 
Q 3544 3216 3844 3400 
Q 4144 3584 4550 3584 
Q 5097 3584 5394 3201 
Q 5691 2819 5691 2113 
L 5691 0 
L 5113 0 
L 5113 2094 
Q 5113 2597 4934 2840 
Q 4756 3084 4391 3084 
Q 3944 3084 3684 2787 
Q 3425 2491 3425 1978 
L 3425 0 
L 2847 0 
L 2847 2094 
Q 2847 2600 2669 2842 
Q 2491 3084 2119 3084 
Q 1678 3084 1418 2786 
Q 1159 2488 1159 1978 
L 1159 0 
L 581 0 
L 581 3500 
L 1159 3500 
L 1159 2956 
Q 1356 3278 1631 3431 
Q 1906 3584 2284 3584 
Q 2666 3584 2933 3390 
Q 3200 3197 3328 2828 
z
" transform="scale(0.015625)"/>
      <path id="DejaVuSans-75" d="M 544 1381 
L 544 3500 
L 1119 3500 
L 1119 1403 
Q 1119 906 1312 657 
Q 1506 409 1894 409 
Q 2359 409 2629 706 
Q 2900 1003 2900 1516 
L 2900 3500 
L 3475 3500 
L 3475 0 
L 2900 0 
L 2900 538 
Q 2691 219 2414 64 
Q 2138 -91 1772 -91 
Q 1169 -91 856 284 
Q 544 659 544 1381 
z
M 1991 3584 
L 1991 3584 
z
" transform="scale(0.015625)"/>
      <path id="DejaVuSans-Oblique-54" d="M 378 4666 
L 4325 4666 
L 4225 4134 
L 2559 4134 
L 1759 0 
L 1125 0 
L 1925 4134 
L 275 4134 
L 378 4666 
z
" transform="scale(0.015625)"/>
      <path id="DejaVuSans-Oblique-65" d="M 3078 2063 
Q 3088 2113 3092 2166 
Q 3097 2219 3097 2272 
Q 3097 2653 2873 2875 
Q 2650 3097 2266 3097 
Q 1838 3097 1509 2826 
Q 1181 2556 1013 2059 
L 3078 2063 
z
M 3578 1613 
L 903 1613 
Q 884 1494 878 1425 
Q 872 1356 872 1306 
Q 872 872 1139 634 
Q 1406 397 1894 397 
Q 2269 397 2603 481 
Q 2938 566 3225 728 
L 3116 159 
Q 2806 34 2476 -28 
Q 2147 -91 1806 -91 
Q 1078 -91 686 257 
Q 294 606 294 1247 
Q 294 1794 489 2264 
Q 684 2734 1063 3103 
Q 1306 3334 1642 3459 
Q 1978 3584 2356 3584 
Q 2950 3584 3301 3228 
Q 3653 2872 3653 2272 
Q 3653 2128 3634 1964 
Q 3616 1800 3578 1613 
z
" transform="scale(0.015625)"/>
     </defs>
     <use xlink:href="#DejaVuSans-28" transform="translate(0 0.015625)"/>
     <use xlink:href="#DejaVuSans-62" transform="translate(39.013672 0.015625)"/>
     <use xlink:href="#DejaVuSans-29" transform="translate(102.490234 0.015625)"/>
     <use xlink:href="#DejaVuSans-20" transform="translate(141.503906 0.015625)"/>
     <use xlink:href="#DejaVuSans-45" transform="translate(173.291016 0.015625)"/>
     <use xlink:href="#DejaVuSans-6c" transform="translate(236.474609 0.015625)"/>
     <use xlink:href="#DejaVuSans-65" transform="translate(264.257812 0.015625)"/>
     <use xlink:href="#DejaVuSans-63" transform="translate(325.78125 0.015625)"/>
     <use xlink:href="#DejaVuSans-74" transform="translate(380.761719 0.015625)"/>
     <use xlink:href="#DejaVuSans-72" transform="translate(419.970703 0.015625)"/>
     <use xlink:href="#DejaVuSans-6f" transform="translate(461.083984 0.015625)"/>
     <use xlink:href="#DejaVuSans-6e" transform="translate(522.265625 0.015625)"/>
     <use xlink:href="#DejaVuSans-20" transform="translate(585.644531 0.015625)"/>
     <use xlink:href="#DejaVuSans-74" transform="translate(617.431641 0.015625)"/>
     <use xlink:href="#DejaVuSans-65" transform="translate(656.640625 0.015625)"/>
     <use xlink:href="#DejaVuSans-6d" transform="translate(718.164062 0.015625)"/>
     <use xlink:href="#DejaVuSans-70" transform="translate(815.576172 0.015625)"/>
     <use xlink:href="#DejaVuSans-65" transform="translate(879.052734 0.015625)"/>
     <use xlink:href="#DejaVuSans-72" transform="translate(940.576172 0.015625)"/>
     <use xlink:href="#DejaVuSans-61" transform="translate(981.689453 0.015625)"/>
     <use xlink:href="#DejaVuSans-74" transform="translate(1042.96875 0.015625)"/>
     <use xlink:href="#DejaVuSans-75" transform="translate(1082.177734 0.015625)"/>
     <use xlink:href="#DejaVuSans-72" transform="translate(1145.556641 0.015625)"/>
     <use xlink:href="#DejaVuSans-65" transform="translate(1186.669922 0.015625)"/>
     <use xlink:href="#DejaVuSans-20" transform="translate(1248.193359 0.015625)"/>
     <use xlink:href="#DejaVuSans-Oblique-54" transform="translate(1279.980469 0.015625)"/>
     <use xlink:href="#DejaVuSans-Oblique-65" transform="translate(1341.064453 -16.390625) scale(0.7)"/>
    </g>
   </g>
   <g id="PathCollection_1">
    <defs>
     <path id="mc0e8ba5cb1" d="M 0 2.44949 
C 0.649612 2.44949 1.272706 2.191396 1.732051 1.732051 
C 2.191396 1.272706 2.44949 0.649612 2.44949 0 
C 2.44949 -0.649612 2.191396 -1.272706 1.732051 -1.732051 
C 1.272706 -2.191396 0.649612 -2.44949 0 -2.44949 
C -0.649612 -2.44949 -1.272706 -2.191396 -1.732051 -1.732051 
C -2.191396 -1.272706 -2.44949 -0.649612 -2.44949 0 
C -2.44949 0.649612 -2.191396 1.272706 -1.732051 1.732051 
C -1.272706 2.191396 -0.649612 2.44949 0 2.44949 
z
" style="stroke: #197885"/>
    </defs>
    <g clip-path="url(#pf545037205)">
     <use xlink:href="#mc0e8ba5cb1" x="204.244287" y="38.781384" style="fill: #197885; stroke: #197885"/>
    </g>
   </g>
   <g id="PathCollection_2">
    <defs>
     <path id="m10e0046c49" d="M 0 2.44949 
C 0.649612 2.44949 1.272706 2.191396 1.732051 1.732051 
C 2.191396 1.272706 2.44949 0.649612 2.44949 0 
C 2.44949 -0.649612 2.191396 -1.272706 1.732051 -1.732051 
C 1.272706 -2.191396 0.649612 -2.44949 0 -2.44949 
C -0.649612 -2.44949 -1.272706 -2.191396 -1.732051 -1.732051 
C -2.191396 -1.272706 -2.44949 -0.649612 -2.44949 0 
C -2.44949 0.649612 -2.191396 1.272706 -1.732051 1.732051 
C -1.272706 2.191396 -0.649612 2.44949 0 2.44949 
z
" style="stroke: #c1682d"/>
    </defs>
    <g clip-path="url(#pf545037205)">
     <use xlink:href="#m10e0046c49" x="204.244287" y="109.648098" style="fill: #c1682d; stroke: #c1682d"/>
    </g>
   </g>
   <g id="legend_1">
    <g id="line2d_33">
     <path d="M 231.803417 42.988594 
L 240.803417 42.988594 
L 249.803417 42.988594 
" style="fill: none; stroke: #197885; stroke-width: 1.7; stroke-linecap: square"/>
    </g>
    <g id="text_10">
     <!-- Inner  (C₀=0.261) -->
     <g style="fill: #21352f" transform="translate(257.003417 46.138594) scale(0.09 -0.09)">
      <defs>
       <path id="DejaVuSans-49" d="M 628 4666 
L 1259 4666 
L 1259 0 
L 628 0 
L 628 4666 
z
" transform="scale(0.015625)"/>
       <path id="DejaVuSans-43" d="M 4122 4306 
L 4122 3641 
Q 3803 3938 3442 4084 
Q 3081 4231 2675 4231 
Q 1875 4231 1450 3742 
Q 1025 3253 1025 2328 
Q 1025 1406 1450 917 
Q 1875 428 2675 428 
Q 3081 428 3442 575 
Q 3803 722 4122 1019 
L 4122 359 
Q 3791 134 3420 21 
Q 3050 -91 2638 -91 
Q 1578 -91 968 557 
Q 359 1206 359 2328 
Q 359 3453 968 4101 
Q 1578 4750 2638 4750 
Q 3056 4750 3426 4639 
Q 3797 4528 4122 4306 
z
" transform="scale(0.015625)"/>
       <path id="DejaVuSans-2080" d="M 1781 2091 
Q 1625 2360 1309 2360 
Q 994 2360 838 2091 
Q 678 1822 678 1285 
Q 678 744 838 476 
Q 994 207 1309 207 
Q 1625 207 1781 476 
Q 1941 744 1941 1285 
Q 1941 1822 1781 2091 
z
M 1309 2638 
Q 1813 2638 2078 2291 
Q 2344 1944 2344 1285 
Q 2344 622 2078 275 
Q 1813 -71 1309 -71 
Q 803 -71 537 275 
Q 272 622 272 1285 
Q 272 1944 537 2291 
Q 803 2638 1309 2638 
z
" transform="scale(0.015625)"/>
       <path id="DejaVuSans-3d" d="M 678 2906 
L 4684 2906 
L 4684 2381 
L 678 2381 
L 678 2906 
z
M 678 1631 
L 4684 1631 
L 4684 1100 
L 678 1100 
L 678 1631 
z
" transform="scale(0.015625)"/>
       <path id="DejaVuSans-36" d="M 2113 2584 
Q 1688 2584 1439 2293 
Q 1191 2003 1191 1497 
Q 1191 994 1439 701 
Q 1688 409 2113 409 
Q 2538 409 2786 701 
Q 3034 994 3034 1497 
Q 3034 2003 2786 2293 
Q 2538 2584 2113 2584 
z
M 3366 4563 
L 3366 3988 
Q 3128 4100 2886 4159 
Q 2644 4219 2406 4219 
Q 1781 4219 1451 3797 
Q 1122 3375 1075 2522 
Q 1259 2794 1537 2939 
Q 1816 3084 2150 3084 
Q 2853 3084 3261 2657 
Q 3669 2231 3669 1497 
Q 3669 778 3244 343 
Q 2819 -91 2113 -91 
Q 1303 -91 875 529 
Q 447 1150 447 2328 
Q 447 3434 972 4092 
Q 1497 4750 2381 4750 
Q 2619 4750 2861 4703 
Q 3103 4656 3366 4563 
z
" transform="scale(0.015625)"/>
      </defs>
      <use xlink:href="#DejaVuSans-49"/>
      <use xlink:href="#DejaVuSans-6e" transform="translate(29.492188 0)"/>
      <use xlink:href="#DejaVuSans-6e" transform="translate(92.871094 0)"/>
      <use xlink:href="#DejaVuSans-65" transform="translate(156.25 0)"/>
      <use xlink:href="#DejaVuSans-72" transform="translate(217.773438 0)"/>
      <use xlink:href="#DejaVuSans-20" transform="translate(258.886719 0)"/>
      <use xlink:href="#DejaVuSans-20" transform="translate(290.673828 0)"/>
      <use xlink:href="#DejaVuSans-28" transform="translate(322.460938 0)"/>
      <use xlink:href="#DejaVuSans-43" transform="translate(361.474609 0)"/>
      <use xlink:href="#DejaVuSans-2080" transform="translate(431.298828 0)"/>
      <use xlink:href="#DejaVuSans-3d" transform="translate(471.386719 0)"/>
      <use xlink:href="#DejaVuSans-30" transform="translate(555.175781 0)"/>
      <use xlink:href="#DejaVuSans-2e" transform="translate(618.798828 0)"/>
      <use xlink:href="#DejaVuSans-32" transform="translate(650.585938 0)"/>
      <use xlink:href="#DejaVuSans-36" transform="translate(714.208984 0)"/>
      <use xlink:href="#DejaVuSans-31" transform="translate(777.832031 0)"/>
      <use xlink:href="#DejaVuSans-29" transform="translate(841.455078 0)"/>
     </g>
    </g>
    <g id="line2d_34">
     <path d="M 231.803417 56.198906 
L 240.803417 56.198906 
L 249.803417 56.198906 
" style="fill: none; stroke: #c1682d; stroke-width: 1.7; stroke-linecap: square"/>
    </g>
    <g id="text_11">
     <!-- Outer  (C₀=0.115) -->
     <g style="fill: #21352f" transform="translate(257.003417 59.348906) scale(0.09 -0.09)">
      <defs>
       <path id="DejaVuSans-4f" d="M 2522 4238 
Q 1834 4238 1429 3725 
Q 1025 3213 1025 2328 
Q 1025 1447 1429 934 
Q 1834 422 2522 422 
Q 3209 422 3611 934 
Q 4013 1447 4013 2328 
Q 4013 3213 3611 3725 
Q 3209 4238 2522 4238 
z
M 2522 4750 
Q 3503 4750 4090 4092 
Q 4678 3434 4678 2328 
Q 4678 1225 4090 567 
Q 3503 -91 2522 -91 
Q 1538 -91 948 565 
Q 359 1222 359 2328 
Q 359 3434 948 4092 
Q 1538 4750 2522 4750 
z
" transform="scale(0.015625)"/>
      </defs>
      <use xlink:href="#DejaVuSans-4f"/>
      <use xlink:href="#DejaVuSans-75" transform="translate(78.710938 0)"/>
      <use xlink:href="#DejaVuSans-74" transform="translate(142.089844 0)"/>
      <use xlink:href="#DejaVuSans-65" transform="translate(181.298828 0)"/>
      <use xlink:href="#DejaVuSans-72" transform="translate(242.822266 0)"/>
      <use xlink:href="#DejaVuSans-20" transform="translate(283.935547 0)"/>
      <use xlink:href="#DejaVuSans-20" transform="translate(315.722656 0)"/>
      <use xlink:href="#DejaVuSans-28" transform="translate(347.509766 0)"/>
      <use xlink:href="#DejaVuSans-43" transform="translate(386.523438 0)"/>
      <use xlink:href="#DejaVuSans-2080" transform="translate(456.347656 0)"/>
      <use xlink:href="#DejaVuSans-3d" transform="translate(496.435547 0)"/>
      <use xlink:href="#DejaVuSans-30" transform="translate(580.224609 0)"/>
      <use xlink:href="#DejaVuSans-2e" transform="translate(643.847656 0)"/>
      <use xlink:href="#DejaVuSans-31" transform="translate(675.634766 0)"/>
      <use xlink:href="#DejaVuSans-31" transform="translate(739.257812 0)"/>
      <use xlink:href="#DejaVuSans-35" transform="translate(802.880859 0)"/>
      <use xlink:href="#DejaVuSans-29" transform="translate(866.503906 0)"/>
     </g>
    </g>
   </g>
  </g>
  <g id="axes_2">
   <g id="patch_5">
    <path d="M 61.887344 340.92327 
L 346.601229 340.92327 
L 346.601229 207.490919 
L 61.887344 207.490919 
z
" style="fill: #ffffff"/>
   </g>
   <g id="matplotlib.axis_3">
    <g id="xtick_8">
     <g id="line2d_35">
      <path d="M 67.882944 340.92327 
L 67.882944 207.490919 
" clip-path="url(#pca57f3e61a)" style="fill: none; stroke: #b0b0b0; stroke-opacity: 0.18; stroke-width: 0.8; stroke-linecap: square"/>
     </g>
     <g id="line2d_36">
      <g>
       <use xlink:href="#m85384e5755" x="67.882944" y="340.92327" style="fill: #43544d; stroke: #43544d; stroke-width: 0.8"/>
      </g>
     </g>
     <g id="text_12">
      <!-- −300 -->
      <g style="fill: #43544d" transform="translate(54.83603 355.141786) scale(0.095 -0.095)">
       <defs>
        <path id="DejaVuSans-33" d="M 2597 2516 
Q 3050 2419 3304 2112 
Q 3559 1806 3559 1356 
Q 3559 666 3084 287 
Q 2609 -91 1734 -91 
Q 1441 -91 1130 -33 
Q 819 25 488 141 
L 488 750 
Q 750 597 1062 519 
Q 1375 441 1716 441 
Q 2309 441 2620 675 
Q 2931 909 2931 1356 
Q 2931 1769 2642 2001 
Q 2353 2234 1838 2234 
L 1294 2234 
L 1294 2753 
L 1863 2753 
Q 2328 2753 2575 2939 
Q 2822 3125 2822 3475 
Q 2822 3834 2567 4026 
Q 2313 4219 1838 4219 
Q 1578 4219 1281 4162 
Q 984 4106 628 3988 
L 628 4550 
Q 988 4650 1302 4700 
Q 1616 4750 1894 4750 
Q 2613 4750 3031 4423 
Q 3450 4097 3450 3541 
Q 3450 3153 3228 2886 
Q 3006 2619 2597 2516 
z
" transform="scale(0.015625)"/>
       </defs>
       <use xlink:href="#DejaVuSans-2212"/>
       <use xlink:href="#DejaVuSans-33" transform="translate(83.789062 0)"/>
       <use xlink:href="#DejaVuSans-30" transform="translate(147.412109 0)"/>
       <use xlink:href="#DejaVuSans-30" transform="translate(211.035156 0)"/>
      </g>
     </g>
    </g>
    <g id="xtick_9">
     <g id="line2d_37">
      <path d="M 113.336725 340.92327 
L 113.336725 207.490919 
" clip-path="url(#pca57f3e61a)" style="fill: none; stroke: #b0b0b0; stroke-opacity: 0.18; stroke-width: 0.8; stroke-linecap: square"/>
     </g>
     <g id="line2d_38">
      <g>
       <use xlink:href="#m85384e5755" x="113.336725" y="340.92327" style="fill: #43544d; stroke: #43544d; stroke-width: 0.8"/>
      </g>
     </g>
     <g id="text_13">
      <!-- −200 -->
      <g style="fill: #43544d" transform="translate(100.289811 355.141786) scale(0.095 -0.095)">
       <use xlink:href="#DejaVuSans-2212"/>
       <use xlink:href="#DejaVuSans-32" transform="translate(83.789062 0)"/>
       <use xlink:href="#DejaVuSans-30" transform="translate(147.412109 0)"/>
       <use xlink:href="#DejaVuSans-30" transform="translate(211.035156 0)"/>
      </g>
     </g>
    </g>
    <g id="xtick_10">
     <g id="line2d_39">
      <path d="M 158.790506 340.92327 
L 158.790506 207.490919 
" clip-path="url(#pca57f3e61a)" style="fill: none; stroke: #b0b0b0; stroke-opacity: 0.18; stroke-width: 0.8; stroke-linecap: square"/>
     </g>
     <g id="line2d_40">
      <g>
       <use xlink:href="#m85384e5755" x="158.790506" y="340.92327" style="fill: #43544d; stroke: #43544d; stroke-width: 0.8"/>
      </g>
     </g>
     <g id="text_14">
      <!-- −100 -->
      <g style="fill: #43544d" transform="translate(145.743592 355.141786) scale(0.095 -0.095)">
       <use xlink:href="#DejaVuSans-2212"/>
       <use xlink:href="#DejaVuSans-31" transform="translate(83.789062 0)"/>
       <use xlink:href="#DejaVuSans-30" transform="translate(147.412109 0)"/>
       <use xlink:href="#DejaVuSans-30" transform="translate(211.035156 0)"/>
      </g>
     </g>
    </g>
    <g id="xtick_11">
     <g id="line2d_41">
      <path d="M 204.244287 340.92327 
L 204.244287 207.490919 
" clip-path="url(#pca57f3e61a)" style="fill: none; stroke: #b0b0b0; stroke-opacity: 0.18; stroke-width: 0.8; stroke-linecap: square"/>
     </g>
     <g id="line2d_42">
      <g>
       <use xlink:href="#m85384e5755" x="204.244287" y="340.92327" style="fill: #43544d; stroke: #43544d; stroke-width: 0.8"/>
      </g>
     </g>
     <g id="text_15">
      <!-- 0 -->
      <g style="fill: #43544d" transform="translate(201.222099 355.141786) scale(0.095 -0.095)">
       <use xlink:href="#DejaVuSans-30"/>
      </g>
     </g>
    </g>
    <g id="xtick_12">
     <g id="line2d_43">
      <path d="M 249.698067 340.92327 
L 249.698067 207.490919 
" clip-path="url(#pca57f3e61a)" style="fill: none; stroke: #b0b0b0; stroke-opacity: 0.18; stroke-width: 0.8; stroke-linecap: square"/>
     </g>
     <g id="line2d_44">
      <g>
       <use xlink:href="#m85384e5755" x="249.698067" y="340.92327" style="fill: #43544d; stroke: #43544d; stroke-width: 0.8"/>
      </g>
     </g>
     <g id="text_16">
      <!-- 100 -->
      <g style="fill: #43544d" transform="translate(240.631505 355.141786) scale(0.095 -0.095)">
       <use xlink:href="#DejaVuSans-31"/>
       <use xlink:href="#DejaVuSans-30" transform="translate(63.623047 0)"/>
       <use xlink:href="#DejaVuSans-30" transform="translate(127.246094 0)"/>
      </g>
     </g>
    </g>
    <g id="xtick_13">
     <g id="line2d_45">
      <path d="M 295.151848 340.92327 
L 295.151848 207.490919 
" clip-path="url(#pca57f3e61a)" style="fill: none; stroke: #b0b0b0; stroke-opacity: 0.18; stroke-width: 0.8; stroke-linecap: square"/>
     </g>
     <g id="line2d_46">
      <g>
       <use xlink:href="#m85384e5755" x="295.151848" y="340.92327" style="fill: #43544d; stroke: #43544d; stroke-width: 0.8"/>
      </g>
     </g>
     <g id="text_17">
      <!-- 200 -->
      <g style="fill: #43544d" transform="translate(286.085286 355.141786) scale(0.095 -0.095)">
       <use xlink:href="#DejaVuSans-32"/>
       <use xlink:href="#DejaVuSans-30" transform="translate(63.623047 0)"/>
       <use xlink:href="#DejaVuSans-30" transform="translate(127.246094 0)"/>
      </g>
     </g>
    </g>
    <g id="xtick_14">
     <g id="line2d_47">
      <path d="M 340.605629 340.92327 
L 340.605629 207.490919 
" clip-path="url(#pca57f3e61a)" style="fill: none; stroke: #b0b0b0; stroke-opacity: 0.18; stroke-width: 0.8; stroke-linecap: square"/>
     </g>
     <g id="line2d_48">
      <g>
       <use xlink:href="#m85384e5755" x="340.605629" y="340.92327" style="fill: #43544d; stroke: #43544d; stroke-width: 0.8"/>
      </g>
     </g>
     <g id="text_18">
      <!-- 300 -->
      <g style="fill: #43544d" transform="translate(331.539067 355.141786) scale(0.095 -0.095)">
       <use xlink:href="#DejaVuSans-33"/>
       <use xlink:href="#DejaVuSans-30" transform="translate(63.623047 0)"/>
       <use xlink:href="#DejaVuSans-30" transform="translate(127.246094 0)"/>
      </g>
     </g>
    </g>
    <g id="text_19">
     <!-- Target time − upstream time (μs) -->
     <g style="fill: #21352f" transform="translate(116.308427 369.095848) scale(0.105 -0.105)">
      <defs>
       <path id="DejaVuSans-54" d="M -19 4666 
L 3928 4666 
L 3928 4134 
L 2272 4134 
L 2272 0 
L 1638 0 
L 1638 4134 
L -19 4134 
L -19 4666 
z
" transform="scale(0.015625)"/>
       <path id="DejaVuSans-73" d="M 2834 3397 
L 2834 2853 
Q 2591 2978 2328 3040 
Q 2066 3103 1784 3103 
Q 1356 3103 1142 2972 
Q 928 2841 928 2578 
Q 928 2378 1081 2264 
Q 1234 2150 1697 2047 
L 1894 2003 
Q 2506 1872 2764 1633 
Q 3022 1394 3022 966 
Q 3022 478 2636 193 
Q 2250 -91 1575 -91 
Q 1294 -91 989 -36 
Q 684 19 347 128 
L 347 722 
Q 666 556 975 473 
Q 1284 391 1588 391 
Q 1994 391 2212 530 
Q 2431 669 2431 922 
Q 2431 1156 2273 1281 
Q 2116 1406 1581 1522 
L 1381 1569 
Q 847 1681 609 1914 
Q 372 2147 372 2553 
Q 372 3047 722 3315 
Q 1072 3584 1716 3584 
Q 2034 3584 2315 3537 
Q 2597 3491 2834 3397 
z
" transform="scale(0.015625)"/>
       <path id="DejaVuSans-3bc" d="M 544 -1331 
L 544 3500 
L 1119 3500 
L 1119 1325 
Q 1119 872 1334 640 
Q 1550 409 1972 409 
Q 2434 409 2667 671 
Q 2900 934 2900 1459 
L 2900 3500 
L 3475 3500 
L 3475 806 
Q 3475 619 3529 530 
Q 3584 441 3700 441 
Q 3728 441 3778 458 
Q 3828 475 3916 513 
L 3916 50 
Q 3788 -22 3673 -56 
Q 3559 -91 3450 -91 
Q 3234 -91 3106 31 
Q 2978 153 2931 403 
Q 2775 156 2548 32 
Q 2322 -91 2016 -91 
Q 1697 -91 1473 31 
Q 1250 153 1119 397 
L 1119 -1331 
L 544 -1331 
z
" transform="scale(0.015625)"/>
      </defs>
      <use xlink:href="#DejaVuSans-54"/>
      <use xlink:href="#DejaVuSans-61" transform="translate(44.583984 0)"/>
      <use xlink:href="#DejaVuSans-72" transform="translate(105.863281 0)"/>
      <use xlink:href="#DejaVuSans-67" transform="translate(145.226562 0)"/>
      <use xlink:href="#DejaVuSans-65" transform="translate(208.703125 0)"/>
      <use xlink:href="#DejaVuSans-74" transform="translate(270.226562 0)"/>
      <use xlink:href="#DejaVuSans-20" transform="translate(309.435547 0)"/>
      <use xlink:href="#DejaVuSans-74" transform="translate(341.222656 0)"/>
      <use xlink:href="#DejaVuSans-69" transform="translate(380.431641 0)"/>
      <use xlink:href="#DejaVuSans-6d" transform="translate(408.214844 0)"/>
      <use xlink:href="#DejaVuSans-65" transform="translate(505.626953 0)"/>
      <use xlink:href="#DejaVuSans-20" transform="translate(567.150391 0)"/>
      <use xlink:href="#DejaVuSans-2212" transform="translate(598.9375 0)"/>
      <use xlink:href="#DejaVuSans-20" transform="translate(682.726562 0)"/>
      <use xlink:href="#DejaVuSans-75" transform="translate(714.513672 0)"/>
      <use xlink:href="#DejaVuSans-70" transform="translate(777.892578 0)"/>
      <use xlink:href="#DejaVuSans-73" transform="translate(841.369141 0)"/>
      <use xlink:href="#DejaVuSans-74" transform="translate(893.46875 0)"/>
      <use xlink:href="#DejaVuSans-72" transform="translate(932.677734 0)"/>
      <use xlink:href="#DejaVuSans-65" transform="translate(971.541016 0)"/>
      <use xlink:href="#DejaVuSans-61" transform="translate(1033.064453 0)"/>
      <use xlink:href="#DejaVuSans-6d" transform="translate(1094.34375 0)"/>
      <use xlink:href="#DejaVuSans-20" transform="translate(1191.755859 0)"/>
      <use xlink:href="#DejaVuSans-74" transform="translate(1223.542969 0)"/>
      <use xlink:href="#DejaVuSans-69" transform="translate(1262.751953 0)"/>
      <use xlink:href="#DejaVuSans-6d" transform="translate(1290.535156 0)"/>
      <use xlink:href="#DejaVuSans-65" transform="translate(1387.947266 0)"/>
      <use xlink:href="#DejaVuSans-20" transform="translate(1449.470703 0)"/>
      <use xlink:href="#DejaVuSans-28" transform="translate(1481.257812 0)"/>
      <use xlink:href="#DejaVuSans-3bc" transform="translate(1520.271484 0)"/>
      <use xlink:href="#DejaVuSans-73" transform="translate(1583.894531 0)"/>
      <use xlink:href="#DejaVuSans-29" transform="translate(1635.994141 0)"/>
     </g>
    </g>
   </g>
   <g id="matplotlib.axis_4">
    <g id="ytick_8">
     <g id="line2d_49">
      <path d="M 61.887344 340.92327 
L 346.601229 340.92327 
" clip-path="url(#pca57f3e61a)" style="fill: none; stroke: #b0b0b0; stroke-opacity: 0.18; stroke-width: 0.8; stroke-linecap: square"/>
     </g>
     <g id="line2d_50">
      <g>
       <use xlink:href="#m367feffceb" x="61.887344" y="340.92327" style="fill: #43544d; stroke: #43544d; stroke-width: 0.8"/>
      </g>
     </g>
     <g id="text_20">
      <!-- 0.0 -->
      <g style="fill: #43544d" transform="translate(38.984219 344.722489) scale(0.1 -0.1)">
       <use xlink:href="#DejaVuSans-30"/>
       <use xlink:href="#DejaVuSans-2e" transform="translate(63.623047 0)"/>
       <use xlink:href="#DejaVuSans-30" transform="translate(95.410156 0)"/>
      </g>
     </g>
    </g>
    <g id="ytick_9">
     <g id="line2d_51">
      <path d="M 61.887344 317.74632 
L 346.601229 317.74632 
" clip-path="url(#pca57f3e61a)" style="fill: none; stroke: #b0b0b0; stroke-opacity: 0.18; stroke-width: 0.8; stroke-linecap: square"/>
     </g>
     <g id="line2d_52">
      <g>
       <use xlink:href="#m367feffceb" x="61.887344" y="317.74632" style="fill: #43544d; stroke: #43544d; stroke-width: 0.8"/>
      </g>
     </g>
     <g id="text_21">
      <!-- 0.5 -->
      <g style="fill: #43544d" transform="translate(38.984219 321.545539) scale(0.1 -0.1)">
       <use xlink:href="#DejaVuSans-30"/>
       <use xlink:href="#DejaVuSans-2e" transform="translate(63.623047 0)"/>
       <use xlink:href="#DejaVuSans-35" transform="translate(95.410156 0)"/>
      </g>
     </g>
    </g>
    <g id="ytick_10">
     <g id="line2d_53">
      <path d="M 61.887344 294.56937 
L 346.601229 294.56937 
" clip-path="url(#pca57f3e61a)" style="fill: none; stroke: #b0b0b0; stroke-opacity: 0.18; stroke-width: 0.8; stroke-linecap: square"/>
     </g>
     <g id="line2d_54">
      <g>
       <use xlink:href="#m367feffceb" x="61.887344" y="294.56937" style="fill: #43544d; stroke: #43544d; stroke-width: 0.8"/>
      </g>
     </g>
     <g id="text_22">
      <!-- 1.0 -->
      <g style="fill: #43544d" transform="translate(38.984219 298.368589) scale(0.1 -0.1)">
       <use xlink:href="#DejaVuSans-31"/>
       <use xlink:href="#DejaVuSans-2e" transform="translate(63.623047 0)"/>
       <use xlink:href="#DejaVuSans-30" transform="translate(95.410156 0)"/>
      </g>
     </g>
    </g>
    <g id="ytick_11">
     <g id="line2d_55">
      <path d="M 61.887344 271.39242 
L 346.601229 271.39242 
" clip-path="url(#pca57f3e61a)" style="fill: none; stroke: #b0b0b0; stroke-opacity: 0.18; stroke-width: 0.8; stroke-linecap: square"/>
     </g>
     <g id="line2d_56">
      <g>
       <use xlink:href="#m367feffceb" x="61.887344" y="271.39242" style="fill: #43544d; stroke: #43544d; stroke-width: 0.8"/>
      </g>
     </g>
     <g id="text_23">
      <!-- 1.5 -->
      <g style="fill: #43544d" transform="translate(38.984219 275.191639) scale(0.1 -0.1)">
       <use xlink:href="#DejaVuSans-31"/>
       <use xlink:href="#DejaVuSans-2e" transform="translate(63.623047 0)"/>
       <use xlink:href="#DejaVuSans-35" transform="translate(95.410156 0)"/>
      </g>
     </g>
    </g>
    <g id="ytick_12">
     <g id="line2d_57">
      <path d="M 61.887344 248.21547 
L 346.601229 248.21547 
" clip-path="url(#pca57f3e61a)" style="fill: none; stroke: #b0b0b0; stroke-opacity: 0.18; stroke-width: 0.8; stroke-linecap: square"/>
     </g>
     <g id="line2d_58">
      <g>
       <use xlink:href="#m367feffceb" x="61.887344" y="248.21547" style="fill: #43544d; stroke: #43544d; stroke-width: 0.8"/>
      </g>
     </g>
     <g id="text_24">
      <!-- 2.0 -->
      <g style="fill: #43544d" transform="translate(38.984219 252.014688) scale(0.1 -0.1)">
       <use xlink:href="#DejaVuSans-32"/>
       <use xlink:href="#DejaVuSans-2e" transform="translate(63.623047 0)"/>
       <use xlink:href="#DejaVuSans-30" transform="translate(95.410156 0)"/>
      </g>
     </g>
    </g>
    <g id="ytick_13">
     <g id="line2d_59">
      <path d="M 61.887344 225.03852 
L 346.601229 225.03852 
" clip-path="url(#pca57f3e61a)" style="fill: none; stroke: #b0b0b0; stroke-opacity: 0.18; stroke-width: 0.8; stroke-linecap: square"/>
     </g>
     <g id="line2d_60">
      <g>
       <use xlink:href="#m367feffceb" x="61.887344" y="225.03852" style="fill: #43544d; stroke: #43544d; stroke-width: 0.8"/>
      </g>
     </g>
     <g id="text_25">
      <!-- 2.5 -->
      <g style="fill: #43544d" transform="translate(38.984219 228.837738) scale(0.1 -0.1)">
       <use xlink:href="#DejaVuSans-32"/>
       <use xlink:href="#DejaVuSans-2e" transform="translate(63.623047 0)"/>
       <use xlink:href="#DejaVuSans-35" transform="translate(95.410156 0)"/>
      </g>
     </g>
    </g>
    <g id="text_26">
     <!-- Mapped-copy RMSE / -->
     <g style="fill: #21352f" transform="translate(21.042844 329.550298) rotate(-90) scale(0.105 -0.105)">
      <defs>
       <path id="DejaVuSans-4d" d="M 628 4666 
L 1569 4666 
L 2759 1491 
L 3956 4666 
L 4897 4666 
L 4897 0 
L 4281 0 
L 4281 4097 
L 3078 897 
L 2444 897 
L 1241 4097 
L 1241 0 
L 628 0 
L 628 4666 
z
" transform="scale(0.015625)"/>
       <path id="DejaVuSans-2d" d="M 313 2009 
L 1997 2009 
L 1997 1497 
L 313 1497 
L 313 2009 
z
" transform="scale(0.015625)"/>
       <path id="DejaVuSans-79" d="M 2059 -325 
Q 1816 -950 1584 -1140 
Q 1353 -1331 966 -1331 
L 506 -1331 
L 506 -850 
L 844 -850 
Q 1081 -850 1212 -737 
Q 1344 -625 1503 -206 
L 1606 56 
L 191 3500 
L 800 3500 
L 1894 763 
L 2988 3500 
L 3597 3500 
L 2059 -325 
z
" transform="scale(0.015625)"/>
       <path id="DejaVuSans-52" d="M 2841 2188 
Q 3044 2119 3236 1894 
Q 3428 1669 3622 1275 
L 4263 0 
L 3584 0 
L 2988 1197 
Q 2756 1666 2539 1819 
Q 2322 1972 1947 1972 
L 1259 1972 
L 1259 0 
L 628 0 
L 628 4666 
L 2053 4666 
Q 2853 4666 3247 4331 
Q 3641 3997 3641 3322 
Q 3641 2881 3436 2590 
Q 3231 2300 2841 2188 
z
M 1259 4147 
L 1259 2491 
L 2053 2491 
Q 2509 2491 2742 2702 
Q 2975 2913 2975 3322 
Q 2975 3731 2742 3939 
Q 2509 4147 2053 4147 
L 1259 4147 
z
" transform="scale(0.015625)"/>
       <path id="DejaVuSans-53" d="M 3425 4513 
L 3425 3897 
Q 3066 4069 2747 4153 
Q 2428 4238 2131 4238 
Q 1616 4238 1336 4038 
Q 1056 3838 1056 3469 
Q 1056 3159 1242 3001 
Q 1428 2844 1947 2747 
L 2328 2669 
Q 3034 2534 3370 2195 
Q 3706 1856 3706 1288 
Q 3706 609 3251 259 
Q 2797 -91 1919 -91 
Q 1588 -91 1214 -16 
Q 841 59 441 206 
L 441 856 
Q 825 641 1194 531 
Q 1563 422 1919 422 
Q 2459 422 2753 634 
Q 3047 847 3047 1241 
Q 3047 1584 2836 1778 
Q 2625 1972 2144 2069 
L 1759 2144 
Q 1053 2284 737 2584 
Q 422 2884 422 3419 
Q 422 4038 858 4394 
Q 1294 4750 2059 4750 
Q 2388 4750 2728 4690 
Q 3069 4631 3425 4513 
z
" transform="scale(0.015625)"/>
       <path id="DejaVuSans-2f" d="M 1625 4666 
L 2156 4666 
L 531 -594 
L 0 -594 
L 1625 4666 
z
" transform="scale(0.015625)"/>
      </defs>
      <use xlink:href="#DejaVuSans-4d"/>
      <use xlink:href="#DejaVuSans-61" transform="translate(86.279297 0)"/>
      <use xlink:href="#DejaVuSans-70" transform="translate(147.558594 0)"/>
      <use xlink:href="#DejaVuSans-70" transform="translate(211.035156 0)"/>
      <use xlink:href="#DejaVuSans-65" transform="translate(274.511719 0)"/>
      <use xlink:href="#DejaVuSans-64" transform="translate(336.035156 0)"/>
      <use xlink:href="#DejaVuSans-2d" transform="translate(399.511719 0)"/>
      <use xlink:href="#DejaVuSans-63" transform="translate(435.595703 0)"/>
      <use xlink:href="#DejaVuSans-6f" transform="translate(490.576172 0)"/>
      <use xlink:href="#DejaVuSans-70" transform="translate(551.757812 0)"/>
      <use xlink:href="#DejaVuSans-79" transform="translate(615.234375 0)"/>
      <use xlink:href="#DejaVuSans-20" transform="translate(674.414062 0)"/>
      <use xlink:href="#DejaVuSans-52" transform="translate(706.201172 0)"/>
      <use xlink:href="#DejaVuSans-4d" transform="translate(775.683594 0)"/>
      <use xlink:href="#DejaVuSans-53" transform="translate(861.962891 0)"/>
      <use xlink:href="#DejaVuSans-45" transform="translate(925.439453 0)"/>
      <use xlink:href="#DejaVuSans-20" transform="translate(988.623047 0)"/>
      <use xlink:href="#DejaVuSans-2f" transform="translate(1020.410156 0)"/>
     </g>
     <!-- zero-anomaly RMSE -->
     <g style="fill: #21352f" transform="translate(32.800547 326.588149) rotate(-90) scale(0.105 -0.105)">
      <defs>
       <path id="DejaVuSans-7a" d="M 353 3500 
L 3084 3500 
L 3084 2975 
L 922 459 
L 3084 459 
L 3084 0 
L 275 0 
L 275 525 
L 2438 3041 
L 353 3041 
L 353 3500 
z
" transform="scale(0.015625)"/>
      </defs>
      <use xlink:href="#DejaVuSans-7a"/>
      <use xlink:href="#DejaVuSans-65" transform="translate(52.490234 0)"/>
      <use xlink:href="#DejaVuSans-72" transform="translate(114.013672 0)"/>
      <use xlink:href="#DejaVuSans-6f" transform="translate(152.876953 0)"/>
      <use xlink:href="#DejaVuSans-2d" transform="translate(215.933594 0)"/>
      <use xlink:href="#DejaVuSans-61" transform="translate(252.017578 0)"/>
      <use xlink:href="#DejaVuSans-6e" transform="translate(313.296875 0)"/>
      <use xlink:href="#DejaVuSans-6f" transform="translate(376.675781 0)"/>
      <use xlink:href="#DejaVuSans-6d" transform="translate(437.857422 0)"/>
      <use xlink:href="#DejaVuSans-61" transform="translate(535.269531 0)"/>
      <use xlink:href="#DejaVuSans-6c" transform="translate(596.548828 0)"/>
      <use xlink:href="#DejaVuSans-79" transform="translate(624.332031 0)"/>
      <use xlink:href="#DejaVuSans-20" transform="translate(683.511719 0)"/>
      <use xlink:href="#DejaVuSans-52" transform="translate(715.298828 0)"/>
      <use xlink:href="#DejaVuSans-4d" transform="translate(784.78125 0)"/>
      <use xlink:href="#DejaVuSans-53" transform="translate(871.060547 0)"/>
      <use xlink:href="#DejaVuSans-45" transform="translate(934.537109 0)"/>
     </g>
    </g>
   </g>
   <g id="line2d_61">
    <path d="M 61.887344 214.040921 
L 63.073652 213.854141 
L 66.632575 214.561648 
L 69.005191 214.709119 
L 71.377807 214.136886 
L 72.564114 214.275752 
L 73.750422 214.163659 
L 76.123038 214.520286 
L 77.309346 214.428288 
L 78.495654 214.521331 
L 79.681962 214.345971 
L 82.054577 214.367192 
L 83.240885 214.630396 
L 84.427193 214.462037 
L 85.613501 214.607758 
L 86.799809 214.535765 
L 91.54504 214.6892 
L 92.731348 214.400161 
L 93.917656 214.312201 
L 95.103964 214.380816 
L 96.290272 214.611045 
L 98.662887 214.784781 
L 99.849195 214.636841 
L 101.035503 214.889637 
L 102.221811 214.818689 
L 103.408119 214.940004 
L 104.594427 214.912159 
L 105.780734 215.009897 
L 106.967042 214.629916 
L 108.15335 214.681557 
L 109.339658 214.261211 
L 110.525966 214.748109 
L 111.712274 214.652116 
L 112.898582 215.083697 
L 114.084889 214.976383 
L 115.271197 215.263972 
L 116.457505 215.325071 
L 117.643813 215.025375 
L 118.830121 215.310248 
L 120.016429 215.142314 
L 121.202737 215.188978 
L 122.389044 215.117513 
L 123.575352 215.655975 
L 124.76166 215.171269 
L 125.947968 214.81507 
L 127.134276 215.167586 
L 128.320584 214.998409 
L 129.506892 214.94354 
L 131.879507 215.434804 
L 133.065815 215.096356 
L 134.252123 215.296544 
L 135.438431 215.207605 
L 136.624739 215.446565 
L 137.811047 215.161441 
L 138.997354 215.659394 
L 140.183662 215.69924 
L 142.556278 215.314082 
L 143.742586 215.408011 
L 144.928894 215.095123 
L 146.115202 215.038538 
L 147.301509 215.484809 
L 148.487817 215.290828 
L 149.674125 215.436276 
L 150.860433 215.397485 
L 152.046741 215.753735 
L 153.233049 215.18621 
L 154.419357 214.813417 
L 155.605664 215.10078 
L 156.791972 215.059838 
L 157.97828 214.821479 
L 159.164588 215.801014 
L 160.350896 215.542735 
L 161.537204 215.106588 
L 162.723512 214.92768 
L 163.909819 215.092836 
L 166.282435 215.122216 
L 167.468743 215.734328 
L 168.655051 215.709614 
L 171.027667 215.251435 
L 172.213974 215.54412 
L 173.400282 215.341358 
L 174.58659 215.011139 
L 176.959206 215.572808 
L 178.145514 215.18622 
L 179.331822 215.017938 
L 180.518129 215.340151 
L 181.704437 214.901228 
L 182.890745 214.843678 
L 184.077053 215.144159 
L 186.449669 215.423831 
L 187.635977 215.522337 
L 188.822284 215.489068 
L 191.1949 214.38803 
L 193.567516 215.4186 
L 194.753824 215.32885 
L 197.126439 215.784372 
L 198.312747 214.701159 
L 199.499055 214.033594 
L 200.685363 215.554279 
L 201.871671 216.208702 
L 203.057979 220.279448 
L 204.244287 226.972534 
L 205.430594 223.894326 
L 206.616902 217.456217 
L 207.80321 214.001002 
L 208.989518 214.071525 
L 210.175826 212.941441 
L 211.362134 213.784073 
L 212.548442 215.461569 
L 213.734749 215.912671 
L 214.921057 215.239665 
L 216.107365 214.890632 
L 217.293673 214.847957 
L 218.479981 214.642559 
L 219.666289 214.691681 
L 220.852597 215.158699 
L 222.038904 215.770413 
L 224.41152 215.308819 
L 225.597828 215.176004 
L 226.784136 214.882157 
L 227.970444 214.876781 
L 229.156752 215.336508 
L 230.343059 215.449306 
L 231.529367 215.272475 
L 232.715675 215.344487 
L 235.088291 215.10395 
L 236.274599 215.385223 
L 239.833522 215.457276 
L 241.01983 215.386458 
L 242.206138 215.518988 
L 243.392446 214.964741 
L 245.765062 214.856073 
L 246.951369 215.076846 
L 248.137677 214.949431 
L 249.323985 215.456037 
L 250.510293 215.598923 
L 252.882909 215.199587 
L 254.069217 215.310641 
L 256.441832 214.74284 
L 257.62814 215.407213 
L 258.814448 215.696181 
L 260.000756 215.309087 
L 262.373372 215.420476 
L 263.559679 215.15707 
L 264.745987 215.098713 
L 265.932295 215.318446 
L 267.118603 215.356111 
L 268.304911 215.241974 
L 269.491219 215.360611 
L 270.677527 215.193258 
L 271.863834 214.844574 
L 273.050142 215.151825 
L 276.609066 214.86501 
L 277.795374 215.005763 
L 278.981682 215.005443 
L 280.167989 214.84104 
L 282.540605 215.07478 
L 283.726913 214.801822 
L 284.913221 215.061289 
L 288.472144 214.947605 
L 289.658452 215.155913 
L 290.84476 215.165319 
L 292.031068 215.008132 
L 294.403684 215.369901 
L 295.589992 215.299264 
L 296.776299 215.390623 
L 297.962607 215.153562 
L 299.148915 215.295306 
L 300.335223 214.832202 
L 302.707839 215.163392 
L 303.894147 215.657988 
L 305.080454 215.622013 
L 307.45307 215.810222 
L 308.639378 215.527961 
L 309.825686 215.451251 
L 312.198302 215.646719 
L 313.384609 215.369191 
L 314.570917 215.3276 
L 315.757225 214.959866 
L 319.316149 215.828567 
L 320.502457 215.616434 
L 321.688764 215.929633 
L 322.875072 215.979151 
L 324.06138 215.667332 
L 326.433996 215.714571 
L 327.620304 215.459128 
L 328.806612 215.657768 
L 329.992919 215.520798 
L 331.179227 215.576878 
L 332.365535 215.162101 
L 333.551843 215.529058 
L 334.738151 215.288615 
L 335.924459 215.442605 
L 337.110767 215.356738 
L 339.483382 215.54138 
L 340.66969 215.896028 
L 341.855998 215.648267 
L 343.042306 216.045527 
L 344.228614 215.425412 
L 345.414922 215.43243 
L 346.601229 215.070874 
L 346.601229 215.070874 
" clip-path="url(#pca57f3e61a)" style="fill: none; stroke: #197885; stroke-width: 1.7; stroke-linecap: square"/>
   </g>
   <g id="line2d_62">
    <path d="M 61.887344 211.637512 
L 63.073652 211.696132 
L 64.259959 211.880256 
L 65.446267 211.837264 
L 66.632575 211.971117 
L 67.818883 211.849405 
L 69.005191 211.911054 
L 71.377807 211.872184 
L 76.123038 212.0731 
L 77.309346 211.914505 
L 78.495654 212.089286 
L 82.054577 212.016654 
L 84.427193 212.060092 
L 85.613501 212.034983 
L 86.799809 212.124182 
L 87.986117 211.984366 
L 90.358732 212.109216 
L 91.54504 211.843195 
L 92.731348 212.070457 
L 97.476579 212.24836 
L 98.662887 212.100109 
L 103.408119 212.429606 
L 104.594427 212.322 
L 105.780734 212.476286 
L 106.967042 212.097676 
L 108.15335 212.453302 
L 110.525966 212.380306 
L 111.712274 212.342884 
L 112.898582 212.52828 
L 116.457505 212.55911 
L 117.643813 212.406064 
L 118.830121 212.600118 
L 121.202737 212.653267 
L 122.389044 212.466335 
L 123.575352 212.60554 
L 127.134276 212.469112 
L 129.506892 212.765611 
L 131.879507 212.792665 
L 134.252123 212.725818 
L 135.438431 212.555762 
L 137.811047 212.859253 
L 138.997354 212.878328 
L 141.36997 212.732704 
L 143.742586 212.71533 
L 144.928894 212.831316 
L 148.487817 212.645597 
L 149.674125 212.716656 
L 152.046741 212.512914 
L 153.233049 212.711423 
L 154.419357 212.631229 
L 155.605664 212.438881 
L 156.791972 212.656585 
L 160.350896 212.467282 
L 161.537204 212.516393 
L 162.723512 212.707411 
L 163.909819 212.528676 
L 165.096127 212.764444 
L 167.468743 212.74959 
L 169.841359 212.66188 
L 171.027667 212.562013 
L 173.400282 212.635657 
L 178.145514 212.68432 
L 179.331822 212.454519 
L 180.518129 212.615486 
L 182.890745 212.458608 
L 186.449669 212.823052 
L 187.635977 212.663931 
L 188.822284 212.35796 
L 190.008592 212.531391 
L 191.1949 212.376513 
L 192.381208 212.67636 
L 193.567516 212.698136 
L 194.753824 212.891181 
L 195.940132 212.733265 
L 197.126439 212.274877 
L 198.312747 212.107323 
L 200.685363 212.992379 
L 201.871671 214.54424 
L 203.057979 216.800887 
L 204.244287 217.574576 
L 205.430594 215.586758 
L 206.616902 212.981234 
L 207.80321 212.652443 
L 208.989518 212.159808 
L 211.362134 212.515587 
L 212.548442 212.419035 
L 213.734749 212.553362 
L 214.921057 212.458238 
L 216.107365 212.553241 
L 218.479981 212.12167 
L 219.666289 212.58931 
L 220.852597 212.439644 
L 222.038904 212.519646 
L 223.225212 212.715609 
L 225.597828 212.335623 
L 226.784136 212.512773 
L 227.970444 212.572676 
L 229.156752 212.39171 
L 231.529367 212.688573 
L 235.088291 212.446758 
L 236.274599 212.573287 
L 237.460907 212.472067 
L 238.647214 212.643829 
L 241.01983 212.604326 
L 242.206138 212.370891 
L 243.392446 212.313133 
L 244.578754 212.524434 
L 245.765062 212.387306 
L 246.951369 212.453874 
L 249.323985 212.826711 
L 250.510293 212.661108 
L 254.069217 212.504507 
L 255.255524 212.62794 
L 264.745987 212.408627 
L 265.932295 212.594516 
L 267.118603 212.427038 
L 268.304911 212.538432 
L 275.422758 212.302576 
L 277.795374 212.425058 
L 280.167989 212.310641 
L 281.354297 212.315074 
L 282.540605 212.181517 
L 284.913221 212.42971 
L 287.285837 212.252772 
L 288.472144 212.360343 
L 289.658452 212.142009 
L 293.217376 212.587667 
L 294.403684 212.492536 
L 295.589992 212.624035 
L 297.962607 212.521253 
L 303.894147 212.636181 
L 305.080454 212.73988 
L 306.266762 212.625748 
L 309.825686 212.70112 
L 315.757225 212.594754 
L 316.943533 212.741616 
L 318.129841 212.745636 
L 320.502457 212.904641 
L 321.688764 212.851854 
L 322.875072 212.934365 
L 326.433996 212.759221 
L 331.179227 212.914904 
L 338.297074 212.854139 
L 339.483382 213.037959 
L 341.855998 213.084906 
L 343.042306 212.868174 
L 344.228614 212.807625 
L 345.414922 212.871965 
L 346.601229 212.628675 
L 346.601229 212.628675 
" clip-path="url(#pca57f3e61a)" style="fill: none; stroke: #c1682d; stroke-width: 1.7; stroke-linecap: square"/>
   </g>
   <g id="line2d_63">
    <path d="M 204.244287 340.92327 
L 204.244287 207.490919 
" clip-path="url(#pca57f3e61a)" style="fill: none; stroke-dasharray: 1,1.65; stroke-dashoffset: 0; stroke: #9aa39c"/>
   </g>
   <g id="line2d_64">
    <path d="M 61.887344 294.56937 
L 346.601229 294.56937 
" clip-path="url(#pca57f3e61a)" style="fill: none; stroke-dasharray: 3.7,1.6; stroke-dashoffset: 0; stroke: #3d4943"/>
   </g>
   <g id="patch_6">
    <path d="M 61.887344 340.92327 
L 61.887344 207.490919 
" style="fill: none; stroke: #62716b; stroke-width: 0.8; stroke-linejoin: miter; stroke-linecap: square"/>
   </g>
   <g id="patch_7">
    <path d="M 61.887344 340.92327 
L 346.601229 340.92327 
" style="fill: none; stroke: #62716b; stroke-width: 0.8; stroke-linejoin: miter; stroke-linecap: square"/>
   </g>
   <g id="legend_2">
    <g id="patch_8">
     <path d="M 68.187344 288.767407 
L 213.485312 288.767407 
Q 215.285313 288.767407 215.285313 286.967407 
L 215.285313 261.446782 
Q 215.285313 259.646782 213.485312 259.646782 
L 68.187344 259.646782 
Q 66.387344 259.646782 66.387344 261.446782 
L 66.387344 286.967407 
Q 66.387344 288.767407 68.187344 288.767407 
z
" style="fill: #ffffff; opacity: 0.95"/>
    </g>
    <g id="line2d_65">
     <path d="M 69.987344 266.935376 
L 78.987344 266.935376 
L 87.987344 266.935376 
" style="fill: none; stroke: #197885; stroke-width: 1.7; stroke-linecap: square"/>
    </g>
    <g id="text_27">
     <!-- Inner  (2.46× at zero lag) -->
     <g style="fill: #21352f" transform="translate(95.187344 270.085376) scale(0.09 -0.09)">
      <defs>
       <path id="DejaVuSans-34" d="M 2419 4116 
L 825 1625 
L 2419 1625 
L 2419 4116 
z
M 2253 4666 
L 3047 4666 
L 3047 1625 
L 3713 1625 
L 3713 1100 
L 3047 1100 
L 3047 0 
L 2419 0 
L 2419 1100 
L 313 1100 
L 313 1709 
L 2253 4666 
z
" transform="scale(0.015625)"/>
       <path id="DejaVuSans-d7" d="M 4488 3438 
L 3059 2003 
L 4488 575 
L 4116 197 
L 2681 1631 
L 1247 197 
L 878 575 
L 2303 2003 
L 878 3438 
L 1247 3816 
L 2681 2381 
L 4116 3816 
L 4488 3438 
z
" transform="scale(0.015625)"/>
      </defs>
      <use xlink:href="#DejaVuSans-49"/>
      <use xlink:href="#DejaVuSans-6e" transform="translate(29.492188 0)"/>
      <use xlink:href="#DejaVuSans-6e" transform="translate(92.871094 0)"/>
      <use xlink:href="#DejaVuSans-65" transform="translate(156.25 0)"/>
      <use xlink:href="#DejaVuSans-72" transform="translate(217.773438 0)"/>
      <use xlink:href="#DejaVuSans-20" transform="translate(258.886719 0)"/>
      <use xlink:href="#DejaVuSans-20" transform="translate(290.673828 0)"/>
      <use xlink:href="#DejaVuSans-28" transform="translate(322.460938 0)"/>
      <use xlink:href="#DejaVuSans-32" transform="translate(361.474609 0)"/>
      <use xlink:href="#DejaVuSans-2e" transform="translate(425.097656 0)"/>
      <use xlink:href="#DejaVuSans-34" transform="translate(456.884766 0)"/>
      <use xlink:href="#DejaVuSans-36" transform="translate(520.507812 0)"/>
      <use xlink:href="#DejaVuSans-d7" transform="translate(584.130859 0)"/>
      <use xlink:href="#DejaVuSans-20" transform="translate(667.919922 0)"/>
      <use xlink:href="#DejaVuSans-61" transform="translate(699.707031 0)"/>
      <use xlink:href="#DejaVuSans-74" transform="translate(760.986328 0)"/>
      <use xlink:href="#DejaVuSans-20" transform="translate(800.195312 0)"/>
      <use xlink:href="#DejaVuSans-7a" transform="translate(831.982422 0)"/>
      <use xlink:href="#DejaVuSans-65" transform="translate(884.472656 0)"/>
      <use xlink:href="#DejaVuSans-72" transform="translate(945.996094 0)"/>
      <use xlink:href="#DejaVuSans-6f" transform="translate(984.859375 0)"/>
      <use xlink:href="#DejaVuSans-20" transform="translate(1046.041016 0)"/>
      <use xlink:href="#DejaVuSans-6c" transform="translate(1077.828125 0)"/>
      <use xlink:href="#DejaVuSans-61" transform="translate(1105.611328 0)"/>
      <use xlink:href="#DejaVuSans-67" transform="translate(1166.890625 0)"/>
      <use xlink:href="#DejaVuSans-29" transform="translate(1230.367188 0)"/>
     </g>
    </g>
    <g id="line2d_66">
     <path d="M 69.987344 280.145688 
L 78.987344 280.145688 
L 87.987344 280.145688 
" style="fill: none; stroke: #c1682d; stroke-width: 1.7; stroke-linecap: square"/>
    </g>
    <g id="text_28">
     <!-- Outer  (2.66× at zero lag) -->
     <g style="fill: #21352f" transform="translate(95.187344 283.295688) scale(0.09 -0.09)">
      <use xlink:href="#DejaVuSans-4f"/>
      <use xlink:href="#DejaVuSans-75" transform="translate(78.710938 0)"/>
      <use xlink:href="#DejaVuSans-74" transform="translate(142.089844 0)"/>
      <use xlink:href="#DejaVuSans-65" transform="translate(181.298828 0)"/>
      <use xlink:href="#DejaVuSans-72" transform="translate(242.822266 0)"/>
      <use xlink:href="#DejaVuSans-20" transform="translate(283.935547 0)"/>
      <use xlink:href="#DejaVuSans-20" transform="translate(315.722656 0)"/>
      <use xlink:href="#DejaVuSans-28" transform="translate(347.509766 0)"/>
      <use xlink:href="#DejaVuSans-32" transform="translate(386.523438 0)"/>
      <use xlink:href="#DejaVuSans-2e" transform="translate(450.146484 0)"/>
      <use xlink:href="#DejaVuSans-36" transform="translate(481.933594 0)"/>
      <use xlink:href="#DejaVuSans-36" transform="translate(545.556641 0)"/>
      <use xlink:href="#DejaVuSans-d7" transform="translate(609.179688 0)"/>
      <use xlink:href="#DejaVuSans-20" transform="translate(692.96875 0)"/>
      <use xlink:href="#DejaVuSans-61" transform="translate(724.755859 0)"/>
      <use xlink:href="#DejaVuSans-74" transform="translate(786.035156 0)"/>
      <use xlink:href="#DejaVuSans-20" transform="translate(825.244141 0)"/>
      <use xlink:href="#DejaVuSans-7a" transform="translate(857.03125 0)"/>
      <use xlink:href="#DejaVuSans-65" transform="translate(909.521484 0)"/>
      <use xlink:href="#DejaVuSans-72" transform="translate(971.044922 0)"/>
      <use xlink:href="#DejaVuSans-6f" transform="translate(1009.908203 0)"/>
      <use xlink:href="#DejaVuSans-20" transform="translate(1071.089844 0)"/>
      <use xlink:href="#DejaVuSans-6c" transform="translate(1102.876953 0)"/>
      <use xlink:href="#DejaVuSans-61" transform="translate(1130.660156 0)"/>
      <use xlink:href="#DejaVuSans-67" transform="translate(1191.939453 0)"/>
      <use xlink:href="#DejaVuSans-29" transform="translate(1255.416016 0)"/>
     </g>
    </g>
   </g>
  </g>
 </g>
 <defs>
  <clipPath id="pf545037205">
   <rect x="61.887344" y="31.2" width="284.713886" height="166.790439"/>
  </clipPath>
  <clipPath id="pca57f3e61a">
   <rect x="61.887344" y="207.490919" width="284.713886" height="133.432351"/>
  </clipPath>
 </defs>
</svg>
